<svg width="353" height="498" viewBox="0 0 353 498" fill="none" xmlns="http://www.w3.org/2000/svg">
<g clip-path="url(#clip0_548_8013)">
<path d="M303.84 100.57C303.272 100.57 302.812 101.03 302.812 101.597V198.162C302.812 198.729 303.272 199.189 303.84 199.189C304.407 199.189 304.867 198.729 304.867 198.162V101.597C304.867 101.03 304.407 100.57 303.84 100.57Z" fill="#1977CC"/>
<path d="M303.504 200.583L255.445 215.72C254.862 215.903 254.54 216.523 254.723 217.106C254.872 217.578 255.308 217.88 255.777 217.88C255.888 217.88 256 217.864 256.111 217.828L304.17 202.692C304.753 202.508 305.075 201.888 304.892 201.305C304.708 200.722 304.087 200.398 303.504 200.583Z" fill="#126FB5"/>
<path d="M352.224 215.719L304.165 200.582C303.582 200.399 302.961 200.723 302.778 201.304C302.595 201.887 302.918 202.508 303.5 202.691L351.559 217.827C351.67 217.862 351.782 217.879 351.892 217.879C352.362 217.879 352.798 217.578 352.946 217.105C353.13 216.523 352.806 215.902 352.224 215.719Z" fill="#126FB5"/>
<path d="M303.841 193.109C300.874 193.109 298.469 195.513 298.469 198.479V204.796C298.469 207.762 300.874 210.166 303.841 210.166C306.809 210.166 309.214 207.762 309.214 204.796V198.479C309.214 195.513 306.809 193.109 303.841 193.109Z" fill="#C5EDF9"/>
<path d="M303.838 192C300.265 192 297.359 194.904 297.359 198.475V204.793C297.359 208.363 300.265 211.268 303.838 211.268C307.411 211.268 310.317 208.363 310.317 204.793V198.475C310.317 194.904 307.411 192 303.838 192ZM308.104 204.793C308.104 207.144 306.191 209.057 303.838 209.057C301.485 209.057 299.572 207.144 299.572 204.793V198.475C299.572 196.124 301.485 194.211 303.838 194.211C306.191 194.211 308.104 196.124 308.104 198.475V204.793Z" fill="#126FB5"/>
<path d="M38.5818 86.0625C38.0145 86.0625 37.5547 86.5221 37.5547 87.0891V305.667C37.5547 306.234 38.0145 306.694 38.5818 306.694C39.1491 306.694 39.6089 306.234 39.6089 305.667V87.0891C39.6089 86.5221 39.1491 86.0625 38.5818 86.0625Z" fill="#1977CC"/>
<path d="M188.478 87.0938H113.531V162.002H188.478V87.0938Z" fill="#5EDF9"/>
<path d="M188.475 85.9844H113.528C112.916 85.9844 112.422 86.4787 112.422 87.0899V161.998C112.422 162.609 112.916 163.103 113.528 163.103H188.475C189.087 163.103 189.581 162.609 189.581 161.998V87.0899C189.581 86.4787 189.087 85.9844 188.475 85.9844ZM187.369 160.892H114.634V88.1954H187.369V160.892Z" fill="#126FB5"/>
<path d="M188.474 101.523H156.008V161.999H188.474V101.523Z" fill="#A2DFFF"/>
<path d="M188.477 100.5H156.011C155.444 100.5 154.984 100.96 154.984 101.527V162.002C154.984 162.569 155.444 163.029 156.011 163.029H188.477C189.045 163.029 189.505 162.569 189.505 162.002V101.527C189.505 100.96 189.045 100.5 188.477 100.5ZM187.45 160.976H157.039V102.553H187.45V160.976Z" fill="#1977CC"/>
<path d="M338.371 87.0938H188.477V101.526H338.371V87.0938Z" fill="#C5EDF9"/>
<path d="M338.367 85.9844H188.473C187.862 85.9844 187.367 86.4787 187.367 87.0899V101.522C187.367 102.133 187.862 102.627 188.473 102.627H338.367C338.979 102.627 339.473 102.133 339.473 101.522V87.0899C339.473 86.4787 338.979 85.9844 338.367 85.9844ZM337.261 100.416H189.579V88.1954H337.261V100.416Z" fill="#126FB5"/>
<path d="M76.0564 87.0938H1.10938V101.526H76.0564V87.0938Z" fill="#C5EDF9"/>
<path d="M76.0531 85.9844H1.10611C0.49459 85.9844 0 86.4787 0 87.0899V101.522C0 102.133 0.49459 102.627 1.10611 102.627H76.0531C76.6647 102.627 77.1592 102.133 77.1592 101.522V87.0899C77.1592 86.4787 76.6647 85.9844 76.0531 85.9844ZM74.947 100.416H2.21222V88.1954H74.947V100.416Z" fill="#126FB5"/>
<path d="M113.524 273.328H76.0505C75.4833 273.328 75.0234 273.788 75.0234 274.355V311.809C75.0234 312.376 75.4833 312.835 76.0505 312.835H113.524C114.091 312.835 114.551 312.376 114.551 311.809V274.355C114.551 273.788 114.091 273.328 113.524 273.328ZM112.497 310.782H77.0776V275.381H112.497V310.782Z" fill="#1977CC"/>
<path d="M76.7766 273.629C76.3753 273.228 75.7258 273.228 75.3245 273.629C74.9231 274.03 74.9231 274.679 75.3245 275.08L112.798 312.534C112.999 312.735 113.261 312.834 113.525 312.834C113.789 312.834 114.051 312.735 114.252 312.534C114.653 312.133 114.653 311.484 114.252 311.083L76.7782 273.629H76.7766Z" fill="#1977CC"/>
<path d="M113.524 310.789H76.0505C75.4833 310.789 75.0234 311.249 75.0234 311.816V349.27C75.0234 349.836 75.4833 350.296 76.0505 350.296H113.524C114.091 350.296 114.551 349.836 114.551 349.27V311.816C114.551 311.249 114.091 310.789 113.524 310.789ZM112.497 348.243H77.0776V312.842H112.497V348.243Z" fill="#1977CC"/>
<path d="M76.7766 311.09C76.3753 310.689 75.7258 310.689 75.3245 311.09C74.9231 311.491 74.9231 312.14 75.3245 312.541L112.798 349.995C112.999 350.196 113.261 350.295 113.525 350.295C113.789 350.295 114.051 350.196 114.252 349.995C114.653 349.594 114.653 348.945 114.252 348.544L76.7782 311.09H76.7766Z" fill="#1977CC"/>
<path d="M113.524 198.422H76.0505C75.4833 198.422 75.0234 198.881 75.0234 199.448V236.902C75.0234 237.469 75.4833 237.929 76.0505 237.929H113.524C114.091 237.929 114.551 237.469 114.551 236.902V199.448C114.551 198.881 114.091 198.422 113.524 198.422ZM112.497 235.876H77.0776V200.475H112.497V235.876Z" fill="#1977CC"/>
<path d="M76.7766 198.723C76.3753 198.322 75.7258 198.322 75.3245 198.723C74.9231 199.124 74.9231 199.773 75.3245 200.174L112.798 237.628C112.999 237.829 113.261 237.928 113.525 237.928C113.789 237.928 114.051 237.829 114.252 237.628C114.653 237.227 114.653 236.578 114.252 236.177L76.7782 198.723H76.7766Z" fill="#1977CC"/>
<path d="M113.524 235.875H76.0505C75.4833 235.875 75.0234 236.335 75.0234 236.902V274.355C75.0234 274.922 75.4833 275.382 76.0505 275.382H113.524C114.091 275.382 114.551 274.922 114.551 274.355V236.902C114.551 236.335 114.091 235.875 113.524 235.875ZM112.497 273.329H77.0776V237.928H112.497V273.329Z" fill="#1977CC"/>
<path d="M76.7766 236.176C76.3753 235.775 75.7258 235.775 75.3245 236.176C74.9231 236.577 74.9231 237.226 75.3245 237.627L112.798 275.081C112.999 275.282 113.261 275.381 113.525 275.381C113.789 275.381 114.051 275.282 114.252 275.081C114.653 274.68 114.653 274.031 114.252 273.63L76.7782 236.176H76.7766Z" fill="#1977CC"/>
<path d="M113.524 423.148H76.0505C75.4833 423.148 75.0234 423.608 75.0234 424.175V461.629C75.0234 462.196 75.4833 462.655 76.0505 462.655H113.524C114.091 462.655 114.551 462.196 114.551 461.629V424.175C114.551 423.608 114.091 423.148 113.524 423.148ZM112.497 460.602H77.0776V425.202H112.497V460.602Z" fill="#1977CC"/>
<path d="M76.7766 423.449C76.3753 423.048 75.7258 423.048 75.3245 423.449C74.9231 423.85 74.9231 424.5 75.3245 424.901L112.798 462.355C112.999 462.555 113.261 462.655 113.525 462.655C113.789 462.655 114.051 462.555 114.252 462.355C114.653 461.953 114.653 461.304 114.252 460.903L76.7782 423.449H76.7766Z" fill="#1977CC"/>
<path d="M113.524 348.242H76.0505C75.4833 348.242 75.0234 348.702 75.0234 349.269V386.723C75.0234 387.29 75.4833 387.749 76.0505 387.749H113.524C114.091 387.749 114.551 387.29 114.551 386.723V349.269C114.551 348.702 114.091 348.242 113.524 348.242ZM112.497 385.696H77.0776V350.295H112.497V385.696Z" fill="#1977CC"/>
<path d="M76.7766 348.543C76.3753 348.142 75.7258 348.142 75.3245 348.543C74.9231 348.944 74.9231 349.593 75.3245 349.994L112.798 387.448C112.999 387.649 113.261 387.748 113.525 387.748C113.789 387.748 114.051 387.649 114.252 387.448C114.653 387.047 114.653 386.398 114.252 385.997L76.7782 348.543H76.7766Z" fill="#1977CC"/>
<path d="M113.524 385.695H76.0505C75.4833 385.695 75.0234 386.155 75.0234 386.722V424.176C75.0234 424.743 75.4833 425.202 76.0505 425.202H113.524C114.091 425.202 114.551 424.743 114.551 424.176V386.722C114.551 386.155 114.091 385.695 113.524 385.695ZM112.497 423.149H77.0776V387.748H112.497V423.149Z" fill="#1977CC"/>
<path d="M76.7766 385.996C76.3753 385.595 75.7258 385.595 75.3245 385.996C74.9231 386.397 74.9231 387.046 75.3245 387.448L112.798 424.901C112.999 425.102 113.261 425.202 113.525 425.202C113.789 425.202 114.051 425.102 114.252 424.901C114.653 424.5 114.653 423.851 114.252 423.45L76.7782 385.996H76.7766Z" fill="#1977CC"/>
<path d="M113.524 123.516H76.0505C75.4833 123.516 75.0234 123.975 75.0234 124.542V161.996C75.0234 162.563 75.4833 163.023 76.0505 163.023H113.524C114.091 163.023 114.551 162.563 114.551 161.996V124.542C114.551 123.975 114.091 123.516 113.524 123.516ZM112.497 160.97H77.0776V125.569H112.497V160.97Z" fill="#1977CC"/>
<path d="M76.7766 123.816C76.3753 123.415 75.7258 123.415 75.3245 123.816C74.9231 124.218 74.9231 124.867 75.3245 125.268L112.798 162.722C112.999 162.922 113.261 163.022 113.525 163.022C113.789 163.022 114.051 162.922 114.252 162.722C114.653 162.321 114.653 161.672 114.252 161.27L76.7782 123.816H76.7766Z" fill="#1977CC"/>
<path d="M113.524 160.969H76.0505C75.4833 160.969 75.0234 161.428 75.0234 161.995V199.449C75.0234 200.016 75.4833 200.476 76.0505 200.476H113.524C114.091 200.476 114.551 200.016 114.551 199.449V161.995C114.551 161.428 114.091 160.969 113.524 160.969ZM112.497 198.423H77.0776V163.022H112.497V198.423Z" fill="#1977CC"/>
<path d="M76.7766 161.27C76.3753 160.868 75.7258 160.868 75.3245 161.27C74.9231 161.671 74.9231 162.32 75.3245 162.721L112.798 200.175C112.999 200.375 113.261 200.475 113.525 200.475C113.789 200.475 114.051 200.375 114.252 200.175C114.653 199.774 114.653 199.125 114.252 198.723L76.7782 161.27H76.7766Z" fill="#1977CC"/>
<path d="M113.524 86.0625H76.0505C75.4833 86.0625 75.0234 86.5221 75.0234 87.0891V124.543C75.0234 125.11 75.4833 125.57 76.0505 125.57H113.524C114.091 125.57 114.551 125.11 114.551 124.543V87.0891C114.551 86.5221 114.091 86.0625 113.524 86.0625ZM112.497 123.516H77.0776V88.1156H112.497V123.516Z" fill="#1977CC"/>
<path d="M76.7766 86.3634C76.3753 85.9622 75.7258 85.9622 75.3245 86.3634C74.9231 86.7645 74.9231 87.4136 75.3245 87.8148L112.798 125.269C112.999 125.469 113.261 125.569 113.525 125.569C113.789 125.569 114.051 125.469 114.252 125.269C114.653 124.868 114.653 124.218 114.252 123.817L76.7782 86.3634H76.7766Z" fill="#1977CC"/>
<path d="M133.978 461.633H55.6016V473.636H133.978V461.633Z" fill="#C5EDF9"/>
<path d="M133.974 460.523H55.5983C54.9868 460.523 54.4922 461.018 54.4922 461.629V473.632C54.4922 474.243 54.9868 474.737 55.5983 474.737H133.974C134.586 474.737 135.08 474.243 135.08 473.632V461.629C135.08 461.018 134.586 460.523 133.974 460.523ZM132.868 472.526H56.7044V462.735H132.868V472.526Z" fill="#126FB5"/>
<path d="M142.654 473.625H46.9141V496.964H142.654V473.625Z" fill="#A2DFFF"/>
<path d="M142.658 472.602H46.9177C46.3505 472.602 45.8906 473.061 45.8906 473.628V496.968C45.8906 497.534 46.3505 497.994 46.9177 497.994H142.658C143.225 497.994 143.685 497.534 143.685 496.968V473.628C143.685 473.061 143.225 472.602 142.658 472.602ZM141.631 495.941H47.9448V474.655H141.631V495.941Z" fill="#1977CC"/>
<path d="M151.001 48.6094H113.527C112.96 48.6094 112.5 49.069 112.5 49.6359V87.0898C112.5 87.6568 112.96 88.1164 113.527 88.1164H151.001C151.568 88.1164 152.028 87.6568 152.028 87.0898V49.6359C152.028 49.069 151.568 48.6094 151.001 48.6094ZM149.974 86.0633H114.554V50.6625H149.974V86.0633Z" fill="#1977CC"/>
<path d="M114.253 48.9102C113.852 48.5091 113.202 48.5091 112.801 48.9102C112.4 49.3114 112.4 49.9605 112.801 50.3616L150.275 87.8155C150.475 88.0161 150.738 88.1156 151.001 88.1156C151.265 88.1156 151.528 88.0161 151.728 87.8155C152.13 87.4144 152.13 86.7653 151.728 86.3641L114.255 48.9102H114.253Z" fill="#1977CC"/>
<path d="M188.477 48.6094H151.004C150.436 48.6094 149.977 49.069 149.977 49.6359V87.0898C149.977 87.6568 150.436 88.1164 151.004 88.1164H188.477C189.044 88.1164 189.504 87.6568 189.504 87.0898V49.6359C189.504 49.069 189.044 48.6094 188.477 48.6094ZM187.45 86.0633H152.031V50.6625H187.45V86.0633Z" fill="#1977CC"/>
<path d="M151.73 48.9102C151.328 48.5091 150.679 48.5091 150.278 48.9102C149.876 49.3114 149.876 49.9605 150.278 50.3616L187.751 87.8155C187.952 88.0161 188.214 88.1156 188.478 88.1156C188.742 88.1156 189.004 88.0161 189.205 87.8155C189.606 87.4144 189.606 86.7653 189.205 86.3641L151.731 48.9102H151.73Z" fill="#1977CC"/>
<path d="M76.0553 48.6094H38.5818C38.0145 48.6094 37.5547 49.069 37.5547 49.6359V87.0898C37.5547 87.6568 38.0145 88.1164 38.5818 88.1164H76.0553C76.6226 88.1164 77.0824 87.6568 77.0824 87.0898V49.6359C77.0824 49.069 76.6226 48.6094 76.0553 48.6094ZM75.0282 86.0633H39.6089V50.6625H75.0282V86.0633Z" fill="#1977CC"/>
<path d="M39.3079 48.9102C38.9065 48.5091 38.2571 48.5091 37.8557 48.9102C37.4543 49.3114 37.4543 49.9605 37.8557 50.3616L75.3292 87.8155C75.5299 88.0161 75.7922 88.1156 76.0561 88.1156C76.32 88.1156 76.5823 88.0161 76.783 87.8155C77.1843 87.4144 77.1843 86.7653 76.783 86.3641L39.3095 48.9102H39.3079Z" fill="#1977CC"/>
<path d="M76.9923 0.617147C76.798 0.171775 76.3176 -0.0777594 75.842 0.0217386C75.3663 0.121237 75.0234 0.53976 75.0234 1.02619V87.0919C75.0234 87.6589 75.4833 88.1185 76.0505 88.1185H113.524C113.87 88.1185 114.194 87.9448 114.384 87.6542C114.573 87.3652 114.605 86.9988 114.466 86.6813L76.9923 0.617147ZM77.0776 86.0654V5.95845L111.957 86.0654H77.0776Z" fill="#1977CC"/>
<path d="M38.9726 48.6878C38.5886 48.5283 38.1477 48.6167 37.8538 48.9105L0.37871 86.3644C0.0848004 86.6581 -0.00210848 87.0988 0.155908 87.4826C0.315504 87.8663 0.690002 88.1159 1.10558 88.1159H38.5791C39.1464 88.1159 39.6062 87.6563 39.6062 87.0893V49.6354C39.6062 49.2201 39.3565 48.8458 38.9726 48.6862V48.6878ZM37.552 86.0643H3.58486L37.552 52.115V86.0643Z" fill="#1977CC"/>
<path d="M300.891 48.6094H263.418C262.85 48.6094 262.391 49.069 262.391 49.6359V87.0898C262.391 87.6568 262.85 88.1164 263.418 88.1164H300.891C301.458 88.1164 301.918 87.6568 301.918 87.0898V49.6359C301.918 49.069 301.458 48.6094 300.891 48.6094ZM299.864 86.0633H264.445V50.6625H299.864V86.0633Z" fill="#1977CC"/>
<path d="M264.144 48.9102C263.742 48.5091 263.093 48.5091 262.692 48.9102C262.29 49.3114 262.29 49.9605 262.692 50.3616L300.165 87.8155C300.366 88.0161 300.628 88.1156 300.892 88.1156C301.156 88.1156 301.418 88.0161 301.619 87.8155C302.02 87.4144 302.02 86.7653 301.619 86.3641L264.145 48.9102H264.144Z" fill="#1977CC"/>
<path d="M225.946 48.6094H188.472C187.905 48.6094 187.445 49.069 187.445 49.6359V87.0898C187.445 87.6568 187.905 88.1164 188.472 88.1164H225.946C226.513 88.1164 226.973 87.6568 226.973 87.0898V49.6359C226.973 49.069 226.513 48.6094 225.946 48.6094ZM224.919 86.0633H189.5V50.6625H224.919V86.0633Z" fill="#1977CC"/>
<path d="M189.198 48.9102C188.797 48.5091 188.148 48.5091 187.746 48.9102C187.345 49.3114 187.345 49.9605 187.746 50.3616L225.22 87.8155C225.421 88.0161 225.683 88.1156 225.947 88.1156C226.211 88.1156 226.473 88.0161 226.674 87.8155C227.075 87.4144 227.075 86.7653 226.674 86.3641L189.2 48.9102H189.198Z" fill="#1977CC"/>
<path d="M263.422 48.6094H225.949C225.382 48.6094 224.922 49.069 224.922 49.6359V87.0898C224.922 87.6568 225.382 88.1164 225.949 88.1164H263.422C263.99 88.1164 264.45 87.6568 264.45 87.0898V49.6359C264.45 49.069 263.99 48.6094 263.422 48.6094ZM262.395 86.0633H226.976V50.6625H262.395V86.0633Z" fill="#1977CC"/>
<path d="M226.675 48.9102C226.274 48.5091 225.624 48.5091 225.223 48.9102C224.822 49.3114 224.822 49.9605 225.223 50.3616L262.696 87.8155C262.897 88.0161 263.159 88.1156 263.423 88.1156C263.687 88.1156 263.949 88.0161 264.15 87.8155C264.552 87.4144 264.552 86.7653 264.15 86.3641L226.677 48.9102H226.675Z" fill="#1977CC"/>
<path d="M301.62 48.9105C301.326 48.6167 300.883 48.5283 300.501 48.6878C300.117 48.8473 299.867 49.2216 299.867 49.637V87.0909C299.867 87.6579 300.327 88.1174 300.894 88.1174H338.368C338.783 88.1174 339.158 87.8679 339.318 87.4841C339.477 87.1003 339.389 86.6597 339.095 86.366L301.621 48.9121L301.62 48.9105ZM301.92 86.0643V52.115L335.887 86.0643H301.92Z" fill="#1977CC"/>
<path d="M301.113 48.6335L76.2719 0.023182C75.8847 -0.0605226 75.4834 0.0863554 75.2416 0.400643L37.7681 49.0125C37.422 49.461 37.5058 50.107 37.9545 50.4529C38.4033 50.7987 39.0496 50.715 39.3957 50.2665L76.471 2.16634L300.678 50.6408C300.751 50.6566 300.824 50.6645 300.896 50.6645C301.369 50.6645 301.796 50.336 301.9 49.8543C302.02 49.3 301.668 48.7535 301.113 48.6335Z" fill="#1977CC"/>
<path d="M45.2612 313.374C45.7974 309.686 43.2413 306.262 39.5519 305.726C35.8625 305.19 32.4369 307.745 31.9007 311.433C31.3644 315.12 33.9206 318.544 37.61 319.08C41.2994 319.616 44.7249 317.061 45.2612 313.374Z" fill="#C5EDF9"/>
<path d="M38.5831 304.562C34.2519 304.562 30.7266 308.084 30.7266 312.415C30.7266 316.745 34.2503 320.267 38.5831 320.267C42.9159 320.267 46.4397 316.745 46.4397 312.415C46.4397 308.084 42.9159 304.562 38.5831 304.562ZM38.5831 318.056C35.4702 318.056 32.9388 315.526 32.9388 312.415C32.9388 309.304 35.4702 306.774 38.5831 306.774C41.696 306.774 44.2275 309.304 44.2275 312.415C44.2275 315.526 41.696 318.056 38.5831 318.056Z" fill="#126FB5"/>
</g>
<defs>
<clipPath id="clip0_548_8013">
<rect width="353" height="498" fill="white"/>
</clipPath>
</defs>
</svg>
