<svg width="89" height="72" viewBox="0 0 89 72" fill="none" xmlns="http://www.w3.org/2000/svg">
<g clip-path="url(#clip0_1984_6179)">
<path d="M77.9878 71.2142H11.0529C5.30844 71.2142 0.632812 66.5089 0.632812 60.728V21.7398C0.632812 15.9589 5.30844 11.2535 11.0529 11.2535H23.9587L30.1906 3.34589C31.1584 1.76226 32.8957 0.78125 34.7513 0.78125H54.2894C56.1485 0.78125 57.8823 1.75876 58.8501 3.34589L65.0819 11.2535H77.9843C83.7288 11.2535 88.4044 15.9589 88.4044 21.7398V60.7244C88.4044 66.5054 83.7288 71.2107 77.9843 71.2107L77.9878 71.2142ZM11.0529 14.7571C7.22673 14.7571 4.11429 17.8894 4.11429 21.7398V60.7244C4.11429 64.5749 7.22673 67.7071 11.0529 67.7071H77.9878C81.8139 67.7071 84.9264 64.5749 84.9264 60.7244V21.7398C84.9264 17.8894 81.8139 14.7571 77.9878 14.7571H64.2429C63.7103 14.7571 63.2089 14.5119 62.8782 14.095L56.0545 5.43404C56.0023 5.36747 55.9535 5.2974 55.9117 5.22382C55.5775 4.64573 54.9578 4.28486 54.2894 4.28486H34.7513C34.0829 4.28486 33.4632 4.64222 33.1289 5.22382C33.0872 5.2974 33.0384 5.36747 32.9862 5.43404L26.159 14.095C25.8283 14.5154 25.3269 14.7571 24.7943 14.7571H11.0529Z" fill="#A2A2A2"/>
<path d="M11.3218 24.6217C9.5637 24.6217 8.13281 23.1817 8.13281 21.4124C8.13281 19.6431 9.5637 18.2031 11.3218 18.2031C13.08 18.2031 14.5109 19.6431 14.5109 21.4124C14.5109 23.1817 13.08 24.6217 11.3218 24.6217ZM11.3218 21.1181C11.1582 21.1181 11.0294 21.2513 11.0294 21.4124C11.0294 21.5736 11.1617 21.7067 11.3218 21.7067C11.482 21.7067 11.6143 21.5736 11.6143 21.4124C11.6143 21.2513 11.482 21.1181 11.3218 21.1181Z" fill="#A2A2A2"/>
<path d="M26.643 31.484H26.6325L2.36315 31.3474C1.40227 31.3403 0.625896 30.552 0.632859 29.585C0.639822 28.6216 1.41619 27.8438 2.3736 27.8438H2.38404L26.6534 27.9804C27.6143 27.9874 28.3907 28.7757 28.3837 29.7427C28.3768 30.7062 27.6004 31.484 26.643 31.484Z" fill="#A2A2A2"/>
<path d="M86.6722 31.8313H86.6618L62.5038 31.6911C61.5429 31.6841 60.7665 30.8958 60.7735 29.9288C60.7804 28.9653 61.5568 28.1875 62.5142 28.1875H62.5247L86.6826 28.3276C87.6435 28.3347 88.4199 29.123 88.4129 30.09C88.406 31.0535 87.6296 31.8313 86.6722 31.8313Z" fill="#A2A2A2"/>
<path d="M44.5184 62.2807C32.2427 62.2807 22.2578 52.2323 22.2578 39.8786C22.2578 27.5249 32.2427 17.4766 44.5184 17.4766C56.7941 17.4766 66.779 27.5249 66.779 39.8786C66.779 52.2323 56.7941 62.2807 44.5184 62.2807ZM44.5184 20.9802C34.1645 20.9802 25.7393 29.4589 25.7393 39.8786C25.7393 50.2983 34.1645 58.7771 44.5184 58.7771C54.8723 58.7771 63.2975 50.2983 63.2975 39.8786C63.2975 29.4589 54.8723 20.9802 44.5184 20.9802Z" fill="#A2A2A2"/>
<path d="M44.519 56.2843C35.5299 56.2843 28.2188 48.9268 28.2188 39.8804C28.2188 30.8341 35.5299 23.4766 44.519 23.4766C53.5082 23.4766 60.8193 30.8341 60.8193 39.8804C60.8193 48.9268 53.5082 56.2843 44.519 56.2843ZM44.519 26.9802C37.4516 26.9802 31.7002 32.7681 31.7002 39.8804C31.7002 46.9928 37.4516 52.7807 44.519 52.7807C51.5864 52.7807 57.3378 46.9928 57.3378 39.8804C57.3378 32.7681 51.5864 26.9802 44.519 26.9802Z" fill="#A2A2A2"/>
<path d="M47.7122 49.7877C47.0542 49.7877 46.424 49.4093 46.1281 48.7682C45.7277 47.8888 46.1072 46.8482 46.9811 46.4453C48.9063 45.5553 50.4521 43.9052 51.225 41.9256C51.5766 41.0252 52.5863 40.5802 53.481 40.9341C54.3757 41.288 54.8179 42.304 54.4663 43.2044C53.3696 46.0213 51.1693 48.3617 48.4363 49.6265C48.1996 49.7352 47.9524 49.7877 47.7087 49.7877H47.7122Z" fill="#A2A2A2"/>
</g>
<defs>
<clipPath id="clip0_1984_6179">
<rect width="87.7785" height="70.433" fill="white" transform="translate(0.632812 0.78125)"/>
</clipPath>
</defs>
</svg>
