<svg width="285" height="365" viewBox="0 0 285 365" fill="none" xmlns="http://www.w3.org/2000/svg">
<path fill-rule="evenodd" clip-rule="evenodd" d="M74.2831 117.531C87.8925 117.531 98.9232 128.564 98.9232 142.174C98.9232 155.783 87.8901 166.816 74.2831 166.816C60.6762 166.816 49.6406 155.783 49.6406 142.174C49.6406 128.564 60.6737 117.531 74.2831 117.531ZM204.742 117.531C218.352 117.531 229.385 128.564 229.385 142.174C229.385 155.783 218.352 166.816 204.742 166.816C191.133 166.816 180.1 155.783 180.1 142.174C180.1 128.564 191.133 117.531 204.742 117.531ZM139.51 117.531C153.12 117.531 164.153 128.564 164.153 142.174C164.153 155.783 153.12 166.816 139.51 166.816C125.901 166.816 114.868 155.783 114.868 142.174C114.868 128.564 125.901 117.531 139.51 117.531Z" fill="#DADADA"/>
<path fill-rule="evenodd" clip-rule="evenodd" d="M142.186 260.843C76.6474 260.843 23.5199 207.713 23.5199 142.176C23.5199 76.6376 76.6498 23.5102 142.186 23.5102C207.723 23.5102 260.855 76.6401 260.855 142.176V142.181C260.855 143.09 260.843 143.995 260.821 144.901L260.796 145.746C260.775 146.438 260.748 147.127 260.716 147.816L260.684 148.508C260.636 149.396 260.582 150.285 260.516 151.171L260.463 151.819C260.407 152.511 260.346 153.202 260.278 153.891L260.19 154.751C260.119 155.433 260.042 156.112 259.956 156.791L259.876 157.471C259.766 158.321 259.65 159.166 259.52 160.008L259.389 160.829C259.289 161.457 259.187 162.08 259.077 162.704L258.926 163.561C258.797 164.267 258.663 164.971 258.522 165.674L258.42 166.186C258.249 167.014 258.069 167.839 257.882 168.66L257.672 169.553C257.541 170.114 257.404 170.671 257.263 171.226L257.02 172.181C256.813 172.975 256.601 173.761 256.379 174.55L256.197 175.174C256.016 175.799 255.829 176.425 255.639 177.048L255.344 177.991C255.172 178.536 254.996 179.077 254.816 179.62L254.526 180.489C254.268 181.249 254.003 182.004 253.73 182.756L253.387 183.674C253.202 184.169 253.014 184.66 252.827 185.15L252.422 186.177C252.228 186.662 252.03 187.147 251.831 187.631L251.375 188.722C251.1 189.365 250.82 190.005 250.535 190.643L250.029 191.751L249.464 192.959L248.931 194.069C248.721 194.5 248.504 194.931 248.29 195.357C247.998 195.937 247.703 196.514 247.404 197.089C247.199 197.478 246.995 197.87 246.788 198.26C246.569 198.669 246.345 199.076 246.12 199.482L245.619 200.381C245.38 200.807 245.139 201.231 244.893 201.654L244.501 202.319C244.012 203.145 243.52 203.965 243.013 204.779L242.565 205.492C242.28 205.945 241.991 206.395 241.698 206.841L241.297 207.45C240.384 208.833 239.441 210.196 238.472 211.541L248.327 248.317L211.548 238.462C205.339 242.943 198.676 246.836 191.646 250.063V250.07C176.593 256.983 159.84 260.843 142.186 260.843ZM282.161 282.149L264.218 215.181L264.342 214.972L264.98 213.895C265.372 213.228 265.757 212.556 266.136 211.882L266.662 210.942C266.998 210.335 267.332 209.724 267.658 209.11L268.309 207.876C268.625 207.27 268.937 206.661 269.244 206.05C269.477 205.587 269.706 205.127 269.935 204.662C270.21 204.099 270.483 203.532 270.753 202.964C270.992 202.458 271.23 201.949 271.467 201.438C271.691 200.948 271.915 200.454 272.134 199.962C272.39 199.39 272.638 198.818 272.886 198.243C273.101 197.744 273.312 197.242 273.522 196.741C273.753 196.18 273.982 195.618 274.211 195.055C274.406 194.566 274.601 194.074 274.791 193.58C275.034 192.952 275.275 192.323 275.511 191.69L275.952 190.485C276.21 189.771 276.461 189.053 276.709 188.332L277.053 187.327C277.311 186.557 277.559 185.785 277.805 185.009L278.117 184.01C278.37 183.19 278.613 182.367 278.852 181.539L279.079 180.742C279.322 179.876 279.558 179.001 279.787 178.13L279.992 177.333C280.218 176.447 280.435 175.553 280.644 174.66L280.805 173.966C281.017 173.038 281.219 172.108 281.414 171.173L281.555 170.484C281.752 169.512 281.94 168.536 282.115 167.557L282.193 167.121C282.378 166.079 282.551 165.032 282.714 163.98L282.765 163.641C282.926 162.582 283.074 161.518 283.211 160.451L283.257 160.076C283.389 159.017 283.513 157.951 283.622 156.884L283.661 156.492C283.771 155.399 283.871 154.303 283.954 153.202L283.968 152.998C284.051 151.861 284.126 150.721 284.185 149.574L284.195 149.391C284.251 148.24 284.297 147.085 284.329 145.929V145.856L284.331 145.807C284.363 144.604 284.377 143.396 284.377 142.186C284.377 63.6565 220.718 0 142.189 0C63.659 0 0 63.6492 0 142.176C0 220.706 63.659 284.365 142.186 284.365C159.582 284.365 176.242 281.238 191.649 275.519C192.321 275.268 192.988 275.015 193.658 274.754L195.009 274.221C195.645 273.965 196.28 273.707 196.913 273.444L198.17 272.911C198.776 272.65 199.378 272.387 199.979 272.119C200.471 271.9 200.963 271.679 201.452 271.455C202.02 271.194 202.585 270.929 203.15 270.663L204.584 269.972C205.102 269.718 205.619 269.46 206.132 269.202C206.656 268.939 207.175 268.674 207.693 268.403C208.185 268.148 208.677 267.887 209.167 267.627C209.712 267.334 210.253 267.04 210.793 266.743L212.149 265.983C212.717 265.662 213.282 265.338 213.844 265.009C214.239 264.78 214.631 264.546 215.02 264.313L215.196 264.208L282.161 282.152V282.149Z" fill="#DADADA"/>
</svg>
