<svg width="58" height="58" viewBox="0 0 58 58" fill="none" xmlns="http://www.w3.org/2000/svg">
<path d="M0.00567256 28.9427C-0.097212 12.8131 12.8088 -0.253306 29.2612 0.00372826C45.4413 0.254715 58.1082 12.423 57.9993 29.3994C57.8964 45.1147 45.057 57.9241 28.7892 57.9997C13.2657 58.0723 -0.318111 44.7609 0.00567256 28.9427ZM26.1474 34.6701C24.9976 33.6117 24.2683 32.2298 23.2788 31.0595C22.0109 29.5566 21.1 27.7574 19.5053 26.5327C18.5128 25.7706 17.369 25.6285 16.2978 26.1849C15.1539 26.7776 14.1463 27.4943 14.1826 29.1181C14.2159 30.6755 15.2205 31.5222 16.0073 32.6319C18.1376 35.6317 20.3708 38.5437 22.6403 41.4346C24.9945 44.4313 27.4789 44.2741 29.7363 41.1806C32.3387 37.6184 35.0833 34.159 37.7492 30.6422C40.4998 27.0165 43.2444 23.3848 45.9709 19.7379C46.7788 18.6584 46.9362 17.4639 46.2009 16.2846C44.6243 13.7596 41.919 13.8231 40.0157 16.3813C38.536 18.3681 37.029 20.3366 35.5311 22.3082C32.4143 26.4147 29.2945 30.5212 26.1474 34.664V34.6701Z" fill="#96BF5B"/>
</svg>
