<svg width="52" height="36" viewBox="0 0 52 36" fill="none" xmlns="http://www.w3.org/2000/svg">
<path fill-rule="evenodd" clip-rule="evenodd" d="M2 0C0.89544 0 0 0.89544 0 2C0 3.10456 0.89544 4 2 4H50C51.1044 4 52 3.10456 52 2C52 0.89544 51.1044 0 50 0H2ZM0 18C0 16.8954 0.89544 16 2 16H50C51.1044 16 52 16.8954 52 18C52 19.1046 51.1044 20 50 20H2C0.89544 20 0 19.1046 0 18ZM0 34C0 32.8956 0.89544 32 2 32H50C51.1044 32 52 32.8956 52 34C52 35.1044 51.1044 36 50 36H2C0.89544 36 0 35.1044 0 34Z" fill="white"/>
</svg>
