<svg width="20" height="20" viewBox="0 0 20 20" fill="none" xmlns="http://www.w3.org/2000/svg">
<path d="M18.75 19.9918H0.75C0.34 19.9918 0 19.6518 0 19.2418C0 18.8318 0.34 18.4918 0.75 18.4918H18.75C19.16 18.4918 19.5 18.8318 19.5 19.2418C19.5 19.6518 19.16 19.9918 18.75 19.9918ZM16.77 1.47381C14.83 -0.46619 12.93 -0.51619 10.94 1.47381L9.73 2.68381C9.63 2.78381 9.59 2.94381 9.63 3.08381C10.0125 4.39619 10.7197 5.59093 11.6863 6.55753C12.6529 7.52412 13.8476 8.23135 15.16 8.61381C15.2309 8.63702 15.3068 8.63995 15.3793 8.62228C15.4517 8.60461 15.5178 8.56704 15.57 8.51381L16.77 7.30381C17.76 6.32381 18.24 5.37381 18.24 4.41381C18.25 3.42381 17.77 2.46381 16.77 1.47381ZM13.36 9.52181C13.07 9.38181 12.79 9.24181 12.52 9.08181C12.3007 8.95116 12.0871 8.81103 11.88 8.66181C11.71 8.55181 11.51 8.39181 11.32 8.23181C11.2588 8.18719 11.2019 8.13698 11.15 8.08181C10.82 7.80181 10.45 7.44181 10.12 7.04181C10.09 7.02181 10.04 6.95181 9.97 6.86181C9.87 6.74181 9.7 6.54181 9.55 6.31181C9.40745 6.12373 9.27718 5.92665 9.16 5.72181C9 5.45181 8.86 5.18181 8.72 4.90181C8.69918 4.85703 8.67885 4.81203 8.659 4.76681C8.511 4.43381 8.076 4.33681 7.819 4.59381L2.09 10.3228C1.96 10.4528 1.84 10.7028 1.81 10.8728L1.27 14.7028C1.17 15.3828 1.36 16.0228 1.78 16.4528C2.14 16.8028 2.64 16.9928 3.18 16.9928C3.3 16.9928 3.42 16.9828 3.54 16.9628L7.38 16.4228C7.56 16.3928 7.81 16.2728 7.93 16.1428L13.652 10.4218C13.912 10.1618 13.813 9.71681 13.476 9.57181C13.4373 9.55523 13.3986 9.53857 13.36 9.52181Z" fill="#25C0DC"/>
</svg>
