<svg width="25" height="15" viewBox="0 0 25 15" fill="none" xmlns="http://www.w3.org/2000/svg">
<path d="M0.435064 2.31631C0.435064 2.83676 0.617803 3.27589 0.983286 3.6337L10.8347 13.3759C11.2832 13.8313 11.765 14.0427 12.3464 14.0427C12.9279 14.0427 13.4263 13.8313 13.8582 13.3921L23.7096 3.6337C24.0751 3.27589 24.2578 2.83677 24.2578 2.31632C24.2578 1.27542 23.4106 0.429687 22.3473 0.429687C21.8157 0.429687 21.334 0.64112 20.9353 1.01519L12.3298 9.57008L3.74101 1.01519C3.35892 0.641119 2.87714 0.429687 2.34554 0.429687C1.28232 0.429686 0.435064 1.27542 0.435064 2.31631Z" fill="white"/>
</svg>
