<svg width="50" height="50" viewBox="0 0 50 50" fill="none" xmlns="http://www.w3.org/2000/svg">
<path d="M19.7344 31.8385C19.3386 31.8385 18.9427 31.6927 18.6302 31.3802C17.79 30.545 17.1236 29.5516 16.6695 28.4574C16.2154 27.3632 15.9825 26.1899 15.9844 25.0052C15.9844 20.026 20.0261 15.9844 25.0052 15.9844C27.4011 15.9844 29.6719 16.9219 31.3802 18.6302C31.6728 18.9232 31.8372 19.3203 31.8372 19.7344C31.8372 20.1484 31.6728 20.5456 31.3802 20.8385L20.8386 31.3802C20.5261 31.6927 20.1302 31.8385 19.7344 31.8385ZM25.0052 19.1094C23.9742 19.1117 22.9618 19.3839 22.0687 19.899C21.1755 20.4141 20.4329 21.1541 19.9146 22.0453C19.3962 22.9366 19.1203 23.948 19.1143 24.979C19.1083 26.01 19.3724 27.0246 19.8802 27.9219L27.9219 19.8802C27.0469 19.3802 26.0469 19.1094 25.0052 19.1094Z" fill="#2C4660"/>
<path d="M11.6693 38.5651C11.3151 38.5651 10.9401 38.4401 10.6484 38.1901C8.41927 36.2943 6.41927 33.9609 4.71094 31.2526C2.5026 27.8151 2.5026 22.2109 4.71094 18.7526C9.79427 10.7943 17.1901 6.21094 25.0026 6.21094C29.5859 6.21094 34.1068 7.79427 38.0651 10.7734C38.3966 11.0221 38.6158 11.3922 38.6744 11.8025C38.733 12.2127 38.6262 12.6294 38.3776 12.9609C38.129 13.2925 37.7588 13.5116 37.3486 13.5702C36.9383 13.6288 36.5216 13.5221 36.1901 13.2734C32.7734 10.6901 28.8984 9.33594 25.0026 9.33594C18.2734 9.33594 11.8359 13.3776 7.33594 20.4401C5.77344 22.8776 5.77344 27.1276 7.33594 29.5651C8.89844 32.0026 10.6901 34.1068 12.6693 35.8151C13.3151 36.3776 13.3984 37.3568 12.8359 38.0234C12.5443 38.3776 12.1068 38.5651 11.6693 38.5651ZM25.0005 43.7943C22.2297 43.7943 19.5214 43.2318 16.9172 42.1276C16.5365 41.9667 16.2351 41.6615 16.0789 41.2789C15.9227 40.8962 15.9245 40.4673 16.0839 40.0859C16.4172 39.2943 17.3339 38.9193 18.1255 39.2526C20.3339 40.1901 22.6464 40.6693 24.9797 40.6693C31.7089 40.6693 38.1464 36.6276 42.6464 29.5651C44.2089 27.1276 44.2089 22.8776 42.6464 20.4401C42.0005 19.4193 41.2922 18.4401 40.5422 17.5234C40.2831 17.1988 40.162 16.7855 40.2049 16.3724C40.2477 15.9593 40.4512 15.5796 40.7714 15.3151C40.931 15.1842 41.115 15.0863 41.3127 15.0269C41.5104 14.9675 41.718 14.9479 41.9233 14.9692C42.1286 14.9906 42.3277 15.0523 42.509 15.151C42.6904 15.2497 42.8503 15.3834 42.9797 15.5443C43.7922 16.5443 44.5839 17.6276 45.2922 18.7526C47.5005 22.1901 47.5005 27.7943 45.2922 31.2526C40.2089 39.2109 32.813 43.7943 25.0005 43.7943Z" fill="#2C4660"/>
<path d="M26.4371 33.8896C25.7079 33.8896 25.0412 33.3687 24.8954 32.6187C24.7287 31.7646 25.2912 30.9521 26.1454 30.8062C28.4371 30.3896 30.3537 28.4729 30.7704 26.1812C30.9371 25.3271 31.7496 24.7854 32.6037 24.9312C33.4579 25.0979 34.0204 25.9104 33.8537 26.7646C33.1871 30.3687 30.3121 33.2229 26.7287 33.8896C26.6246 33.8687 26.5412 33.8896 26.4371 33.8896ZM4.16624 47.3917C3.77041 47.3917 3.37458 47.2458 3.06208 46.9333C2.77199 46.639 2.60938 46.2424 2.60938 45.8292C2.60937 45.4159 2.77199 45.0193 3.06208 44.725L18.6246 29.1625C19.2287 28.5583 20.2287 28.5583 20.8329 29.1625C21.4371 29.7667 21.4371 30.7667 20.8329 31.3708L5.27041 46.9333C4.95791 47.2458 4.56208 47.3917 4.16624 47.3917ZM30.2662 21.2917C29.8704 21.2917 29.4746 21.1458 29.1621 20.8333C28.8715 20.5393 28.7085 20.1426 28.7085 19.7292C28.7085 19.3158 28.8715 18.919 29.1621 18.625L44.7246 3.0625C45.3287 2.45833 46.3287 2.45833 46.9329 3.0625C47.5371 3.66667 47.5371 4.66667 46.9329 5.27083L31.3704 20.8333C31.0579 21.1458 30.6621 21.2917 30.2662 21.2917Z" fill="#2C4660"/>
</svg>
