<svg width="240" height="293" viewBox="0 0 240 293" fill="none" xmlns="http://www.w3.org/2000/svg">
<g clip-path="url(#clip0_907_8892)">
<path d="M200.914 292.645H38.3364C38.2391 292.496 38.1648 292.227 38.0447 292.204C26.9933 290.325 17.8011 285.239 10.5651 276.579C4.35303 269.144 0.491932 260.793 0 251.01C0.040041 249.968 0.114403 248.925 0.114403 247.883C0.114403 180.497 0.114403 113.105 0.114403 45.7194C0.114403 44.0126 0.0915223 42.3 0.080082 40.5932C0.0572014 38.3365 0.594895 36.1943 1.17835 34.0178C3.72953 24.5328 8.73466 16.7317 16.2738 10.4026C24.0761 3.86166 33.0567 0.213139 43.0441 0.150135C79.7388 -0.096155 116.428 0.024126 153.122 0.0699473C163.831 0.0814026 173.074 3.7872 180.699 11.4451C196.944 27.7632 213.287 43.9782 229.463 60.365C236.373 67.3643 239.937 76.0245 239.954 85.8531C240.04 137.654 240.006 189.461 239.971 241.268C239.971 245.603 239.954 249.899 239.239 254.258C236.831 268.944 228.954 279.563 216.307 286.957C211.502 289.769 206.165 291.075 200.92 292.65L200.914 292.645ZM22.8405 146.206C22.8405 171.253 22.8405 196.3 22.8405 221.347C22.8405 230.299 22.8977 239.251 22.8291 248.204C22.7318 259.842 33.8976 269.814 44.7658 269.809C94.5825 269.757 144.394 269.791 194.21 269.78C200.262 269.78 205.479 267.472 209.821 263.382C215.26 258.262 217.188 251.686 217.182 244.355C217.159 192.067 217.171 139.785 217.159 87.497C217.159 86.3629 216.976 85.2288 216.902 84.0948C216.788 82.2505 215.924 81.6032 214.002 81.6319C206.114 81.7407 198.22 81.672 190.332 81.6834C188.524 81.6834 186.654 82.0557 184.932 81.6949C176.386 79.9021 168.853 76.3681 163.407 69.0883C159.283 63.5725 156.497 57.6501 156.44 50.6796C156.372 42.7754 156.423 34.8712 156.423 26.9671C156.423 24.2712 155.067 22.9214 152.356 22.9176C116.8 22.9176 81.2489 22.9176 45.6925 22.9119C43.5303 22.9119 41.4367 23.3873 39.3717 23.8913C29.4587 26.3026 22.6518 36.0339 22.7376 46.212C23.0236 79.5413 22.8462 112.876 22.8462 146.211L22.8405 146.206Z" fill="#8E8E8E" fill-opacity="0.33"/>
<path d="M119.382 169.461C99.15 169.461 78.9179 169.449 58.68 169.472C53.6062 169.472 48.9958 166.161 46.6505 160.686C44.7629 156.276 45.9241 150.788 49.1445 147.232C52.2849 143.766 56.1117 142.438 60.6535 142.438C99.9794 142.46 139.305 142.449 178.631 142.455C185.518 142.455 190.993 145.926 192.943 151.51C195.929 160.056 189.603 169.163 180.365 169.472C175.714 169.627 171.058 169.506 166.402 169.506C150.729 169.506 135.055 169.506 119.382 169.506C119.382 169.495 119.382 169.484 119.382 169.472V169.461Z" fill="#8E8E8E" fill-opacity="0.33"/>
<path d="M119.378 227.748C99.1459 227.748 78.9137 227.736 58.6816 227.759C53.625 227.759 48.923 224.46 46.6693 218.961C44.6844 214.122 45.7026 209.677 48.9688 205.73C51.989 202.076 55.9874 200.713 60.6608 200.719C99.9867 200.759 139.313 200.736 178.639 200.742C185.526 200.742 190.994 204.218 192.945 209.803C195.925 218.354 189.598 227.467 180.36 227.759C175.521 227.914 170.671 227.793 165.826 227.793C150.341 227.793 134.857 227.793 119.372 227.793C119.372 227.782 119.372 227.771 119.372 227.759L119.378 227.748Z" fill="#8E8E8E" fill-opacity="0.33"/>
<path d="M93.5414 111.165C81.9467 111.165 70.352 111.257 58.763 111.125C52.9742 111.062 49.1875 107.838 46.8479 102.66C44.6514 97.8027 45.641 93.3867 48.747 89.3945C51.6357 85.683 55.6112 84.1136 60.3188 84.1251C82.9363 84.1652 105.554 84.0907 128.171 84.1766C135.584 84.2052 141.282 88.2146 142.626 96.1932C143.284 100.117 141.453 106.337 135.802 109.252C133.411 110.484 131.014 111.217 128.326 111.211C116.731 111.177 105.136 111.194 93.5414 111.194C93.5414 111.183 93.5414 111.171 93.5414 111.165Z" fill="#8E8E8E" fill-opacity="0.33"/>
</g>
<defs>
<clipPath id="clip0_907_8892">
<rect width="240" height="292.643" fill="white"/>
</clipPath>
</defs>
</svg>
