<svg width="112" height="112" viewBox="0 0 112 112" fill="none" xmlns="http://www.w3.org/2000/svg">
<path d="M83.6554 25.8324L59.0154 1.27467C57.3397 -0.415076 54.6129 -0.426278 52.9235 1.24968L52.8985 1.27467L28.3446 25.8324H4.30769C1.92898 25.8324 0 27.7617 0 30.1408V107.692C0 110.071 1.92898 112 4.30769 112H107.692C110.071 112 112 110.071 112 107.692V30.1408C112 27.7617 110.071 25.8324 107.692 25.8324H83.6554ZM56 10.4084L71.4215 25.8324H40.5785L56 10.4084ZM103.385 103.383H8.61539V34.4492H103.385V103.383ZM34.4615 60.2995C29.7033 60.2995 25.8462 56.4417 25.8462 51.6827C25.8462 46.9237 29.7033 43.0659 34.4615 43.0659C39.2198 43.0659 43.0769 46.9237 43.0769 51.6827C43.0769 56.4417 39.2198 60.2995 34.4615 60.2995ZM94.7692 94.7665H30.1538L43.0769 68.9162L53.8462 90.4581L73.2308 51.6827L94.7692 94.7665Z" fill="#D7D7D7"/>
</svg>
