<svg width="51" height="53" viewBox="0 0 51 53" fill="none" xmlns="http://www.w3.org/2000/svg">
<path d="M28.1534 47.4315H44.8392V22.3416L25.3724 7.20203L5.90568 22.3416V47.4315H22.5915V30.7457H28.1534V47.4315ZM50.4011 50.2124C50.4011 50.95 50.1081 51.6573 49.5866 52.1789C49.0651 52.7004 48.3577 52.9934 47.6202 52.9934H3.12472C2.38716 52.9934 1.67981 52.7004 1.15828 52.1789C0.636744 51.6573 0.343751 50.95 0.343751 50.2124V20.9845C0.343457 20.5607 0.440019 20.1425 0.626062 19.7617C0.812106 19.3809 1.08271 19.0477 1.4172 18.7875L23.6649 1.48437C24.1531 1.10462 24.7539 0.898438 25.3724 0.898438C25.9909 0.898438 26.5918 1.10462 27.0799 1.48437L49.3277 18.7875C49.6622 19.0477 49.9328 19.3809 50.1188 19.7617C50.3049 20.1425 50.4014 20.5607 50.4011 20.9845V50.2124Z" fill="#25C0DC"/>
</svg>
