<svg width="60" height="51" viewBox="0 0 60 51" fill="none" xmlns="http://www.w3.org/2000/svg">
<path d="M38.5296 1.50435e-05C38.9451 0.161152 39.3912 0.223816 39.7657 0.510288C40.5147 1.08248 40.9847 1.78822 40.9855 2.7558C40.987 6.56571 40.9773 10.3756 40.9922 14.1855C40.9959 15.1979 40.0127 16.4639 38.9943 16.6802C38.0357 16.8839 37.1457 16.7473 36.396 16.1177C35.8782 15.6835 35.5194 15.1098 35.4761 14.3996C35.3053 11.6021 35.4418 8.80152 35.409 6.00246C35.4053 5.70331 35.3523 5.61528 35.0323 5.61528C25.3497 5.62498 15.6664 5.62498 5.98384 5.61677C5.68468 5.61677 5.59591 5.67198 5.59591 5.99202C5.60561 18.7743 5.60486 31.5565 5.5974 44.3395C5.5974 44.6379 5.65111 44.7282 5.9719 44.7275C15.6545 44.7178 25.3378 44.7178 35.0203 44.726C35.318 44.726 35.4112 44.673 35.409 44.3515C35.3933 41.7576 35.3926 39.1644 35.4067 36.5705C35.4097 36.0155 35.4806 35.4545 35.7865 34.9673C36.3139 34.1273 37.0368 33.5909 38.0693 33.5879C39.6098 33.5835 40.4536 34.2235 40.9325 35.7148C40.9676 35.8245 40.9855 35.926 40.9855 36.0319C40.987 39.9283 40.981 43.8255 40.9884 47.722C40.9907 48.7231 40.0306 49.9593 39.01 50.1898C38.6609 50.2689 38.3095 50.3039 37.9537 50.3039C26.3218 50.3047 14.6899 50.3054 3.0587 50.3032C2.3291 50.3032 1.63605 50.148 1.06162 49.6639C0.505089 49.1939 0.179829 48.6015 0.0850832 47.8645C-0.0447232 46.8521 0.0224156 45.839 0.0224156 44.8274C0.0149591 30.9157 0.0164481 17.004 0.0201801 3.09225C0.0201802 1.86058 0.491665 0.877323 1.64203 0.311097C1.94416 0.16264 2.26569 0.0440259 2.61632 0.065659C2.65288 0.0701375 2.69018 0.0775952 2.72673 0.0775952C14.5123 0.0775963 26.2979 0.0775973 38.0835 0.0731199C38.1819 0.0731199 38.3103 0.141754 38.3804 0.00150276L38.5296 0.00150278L38.5296 1.50435e-05Z" fill="#8E8E8E"/>
<path d="M59.6094 25.7686C59.355 26.6049 58.7597 27.189 58.1614 27.7836C55.5548 30.3723 52.9646 32.9766 50.3595 35.5675C49.7612 36.1628 49.0473 36.3911 48.1804 36.2889C47.5724 36.2173 47.0763 35.989 46.6033 35.6459C45.9826 35.1953 45.5432 33.9263 45.6872 33.1758C45.8379 32.3895 46.2393 31.7785 46.8003 31.2317C47.7954 30.2611 48.769 29.2689 49.7545 28.2894C49.8388 28.2058 49.9499 28.1506 50.0835 28.0574C49.8403 27.9306 49.6911 27.9686 49.5493 27.9686C39.0484 27.9664 28.5475 27.9671 18.0465 27.9649C17.3072 27.9649 16.6052 27.838 16.0032 27.3509C15.4094 26.8712 15.0938 26.2677 14.9744 25.5112C14.8924 24.9905 14.9692 24.5145 15.1744 24.0662C15.6824 22.9561 16.5828 22.4145 17.7959 22.3824C18.0316 22.3765 18.2674 22.3809 18.5031 22.3809C28.8429 22.3809 39.1819 22.3809 49.5217 22.3809L49.9686 22.3809C49.9902 22.2228 49.8649 22.1788 49.7948 22.1086C48.7093 21.018 47.6231 19.928 46.531 18.8433C45.4037 17.7235 45.3649 15.9659 46.4541 14.8544C47.4627 13.8241 49.1472 13.5928 50.3021 14.735C53.1436 17.5445 55.9599 20.3801 58.7947 23.1963C59.1931 23.5925 59.3871 24.0886 59.6079 24.5787L59.6079 25.7701L59.6094 25.7686Z" fill="#8E8E8E"/>
</svg>
