<svg width="43" height="40" viewBox="0 0 43 40" fill="none" xmlns="http://www.w3.org/2000/svg">
<path fill-rule="evenodd" clip-rule="evenodd" d="M39.9922 36.7516L36.8057 40L27.2299 30.2382L27.0744 30.397C25.6619 28.9576 23.7186 28.0597 21.5732 28.0398L21.5 28.0394C19.3257 28.0394 17.3541 28.9412 15.9256 30.397L12.7418 27.15C14.787 25.0653 17.5414 23.7036 20.5991 23.4785L16.742 19.5464C13.9921 20.3701 11.5312 21.889 9.55581 23.9028L6.37204 20.656C8.32085 18.6691 10.6429 17.0625 13.2203 15.9562L9.82801 12.498C7.36219 13.7716 5.12196 15.4354 3.18602 17.4092L0 14.1622C1.92914 12.196 4.11523 10.4918 6.50186 9.10731L0.75458 3.24841L3.94108 0L39.9922 36.7516ZM21.5 32.6334C23.3656 32.6334 24.8798 34.176 24.8798 36.0788C24.8798 37.9816 23.3656 39.5243 21.5 39.5243C19.6344 39.5243 18.1202 37.9816 18.1202 36.0788C18.1202 34.176 19.6344 32.6334 21.5 32.6334ZM24.5111 14.4728C29.21 15.1501 33.4235 17.3889 36.628 20.656L33.6027 23.7411L24.5111 14.4728ZM21.5 5.06967C29.8864 5.06967 37.4909 8.54708 43 14.1619L39.814 17.4095C35.1206 12.6262 28.6426 9.66362 21.5 9.66362C20.9444 9.66362 20.3928 9.68153 19.8458 9.71683L15.8191 5.61186C17.66 5.25593 19.5591 5.06967 21.5 5.06967Z" fill="#8E8E8E"/>
</svg>
