<svg width="339" height="405" viewBox="0 0 339 405" fill="none" xmlns="http://www.w3.org/2000/svg">
<path d="M226.852 355.306V355.28C226.852 355.192 226.852 355.109 226.852 355.025L226.809 352.787L226.756 350.18H128.018L127.964 352.787L127.922 355.021C127.922 355.12 127.922 355.215 127.922 355.306C127.922 355.549 127.922 355.785 127.922 356.028C127.922 369.017 133.135 381.474 142.415 390.658C151.695 399.843 164.282 405.003 177.406 405.003C190.53 405.003 203.116 399.843 212.396 390.658C221.676 381.474 226.89 369.017 226.89 356.028C226.867 355.781 226.859 355.542 226.852 355.306ZM205.778 368.417C203.328 373.843 199.343 378.451 194.304 381.685C189.265 384.918 183.388 386.639 177.383 386.639C171.378 386.639 165.501 384.918 160.462 381.685C155.423 378.451 151.438 373.843 148.987 368.417H205.778Z" fill="#858C94"/>
<path d="M208.245 28.9613C207.822 21.1409 204.385 13.7787 198.642 8.39094C192.899 3.00314 185.287 0 177.374 0C169.461 0 161.849 3.00314 156.106 8.39094C150.363 13.7787 146.927 21.1409 146.504 28.9613L145.82 41.9507L158.695 39.3551C171.024 36.9002 183.724 36.9002 196.053 39.3551L208.928 41.9507L208.245 28.9613ZM177.391 12.5175C181.503 12.5149 185.495 13.8878 188.719 16.4135C191.943 18.9391 194.209 22.4691 195.151 26.4304C183.392 24.4745 171.387 24.4745 159.628 26.4304C160.57 22.4688 162.838 18.9387 166.062 16.4131C169.287 13.8875 173.279 12.5147 177.391 12.5175Z" fill="#858C94"/>
<path d="M326.208 111.797C324.878 111.798 323.559 112.04 322.318 112.511L7.01698 232.061C4.31241 233.096 2.13158 235.148 0.950916 237.769C-0.229748 240.39 -0.314274 243.367 0.715804 246.05L2.55893 250.796C3.35774 252.844 4.76441 254.605 6.59376 255.846C8.42311 257.087 10.5894 257.751 12.8075 257.751C14.1361 257.751 15.4535 257.509 16.6934 257.036L331.994 137.502C334.696 136.464 336.874 134.411 338.052 131.79C339.23 129.17 339.313 126.194 338.284 123.513L336.437 118.751C335.64 116.706 334.236 114.948 332.41 113.706C330.585 112.465 328.422 111.799 326.208 111.797Z" fill="#858C94"/>
<path d="M276.02 234.915V166.867L245.301 178.515V243.059L249.417 250.116L282.735 307.231H72.0242L105.342 250.116L109.459 243.059V230.02L73.6792 243.576L40.9445 299.702C31.0992 316.56 43.3867 337.633 63.0735 337.633H291.69C311.358 337.633 323.649 316.56 313.815 299.702L276.02 234.915Z" fill="#858C94"/>
<path d="M109.453 185.078V143.297C109.477 126.306 116 109.953 127.712 97.5285C139.424 85.1042 155.455 77.5301 172.581 76.3297C189.707 75.1292 206.657 80.3916 220.021 91.0582C233.385 101.725 242.173 117.004 244.616 133.823L273.799 122.757C264.287 78.704 224.733 45.6719 177.392 45.6719C122.912 45.6719 78.75 89.3752 78.75 143.297V196.726L109.453 185.078Z" fill="#858C94"/>
</svg>
