<svg width="46" height="57" viewBox="0 0 46 57" fill="none" xmlns="http://www.w3.org/2000/svg">
<path d="M23 57C26.1625 57 28.75 54.3692 28.75 51.1538H17.25C17.25 54.3692 19.8375 57 23 57ZM40.25 39.4615V24.8462C40.25 15.8723 35.5638 8.36 27.3125 6.37231V4.38462C27.3125 1.95846 25.3862 0 23 0C20.6138 0 18.6875 1.95846 18.6875 4.38462V6.37231C10.465 8.36 5.75 15.8431 5.75 24.8462V39.4615L0 45.3077V48.2308H46V45.3077L40.25 39.4615ZM34.5 42.3846H11.5V24.8462C11.5 17.5969 15.8413 11.6923 23 11.6923C30.1588 11.6923 34.5 17.5969 34.5 24.8462V42.3846Z" fill="#E5FAFE"/>
</svg>
