<svg width="28" height="27" viewBox="0 0 28 27" fill="none" xmlns="http://www.w3.org/2000/svg">
<path fill-rule="evenodd" clip-rule="evenodd" d="M20.9493 18.4496C24.4114 14.0034 24.0986 7.57086 20.0113 3.48352C15.5854 -0.942422 8.40946 -0.942422 3.98353 3.48352C-0.442425 7.90947 -0.442425 15.0853 3.98353 19.5113C8.07086 23.5986 14.5035 23.9113 18.9497 20.4494C18.9688 20.4711 18.9888 20.4923 19.0095 20.513L25.02 26.5233C25.5732 27.0767 26.4702 27.0767 27.0234 26.5233C27.5766 25.9701 27.5766 25.0732 27.0234 24.5199L21.0131 18.5096C20.9922 18.4889 20.971 18.4689 20.9493 18.4496ZM18.0077 5.48699C21.3273 8.80644 21.3273 14.1883 18.0077 17.5078C14.6884 20.8272 9.30644 20.8272 5.98699 17.5078C2.66753 14.1883 2.66753 8.80644 5.98699 5.48699C9.30644 2.16753 14.6884 2.16753 18.0077 5.48699Z" fill="#C9D4DA"/>
</svg>
