<svg width="30" height="16" viewBox="0 0 30 16" fill="none" xmlns="http://www.w3.org/2000/svg">
<path d="M-1.24006e-07 2.21744C-1.58214e-07 2.82915 0.230123 3.34528 0.690374 3.76583L13.0962 15.2162C13.6611 15.7515 14.2678 16 15 16C15.7322 16 16.3598 15.7515 16.9038 15.2354L29.3096 3.76583C29.7699 3.34528 30 2.82915 30 2.21744C30 0.994026 28.9331 -3.64538e-08 27.5941 -8.21997e-08C26.9247 -1.05073e-07 26.318 0.248506 25.8159 0.688172L14.9791 10.7431L4.16318 0.688171C3.68201 0.248506 3.07531 -9.19922e-07 2.40586 -9.42794e-07C1.06694 -9.8854e-07 -5.55888e-08 0.994025 -1.24006e-07 2.21744Z" fill="#3C3C43" fill-opacity="0.3"/>
</svg>
