<svg width="466" height="229" viewBox="0 0 466 229" fill="none" xmlns="http://www.w3.org/2000/svg">
<path d="M295.062 96.8989L272.559 96.7911C270.621 91.6972 268.158 86.7901 265.228 82.1855L279.818 65.8594C280.149 65.4892 280.174 64.9388 279.88 64.5396C275.55 58.662 270.583 53.2301 265.114 48.3922C259.611 43.5236 253.585 39.2393 247.205 35.6599C246.799 35.4314 246.291 35.5006 245.96 35.8289L229.969 51.706C224.992 49.4801 219.789 47.7597 214.478 46.5864L213.282 24.7029C213.254 24.2072 212.883 23.8 212.395 23.726C197.973 21.5516 182.937 22.4996 168.913 26.4668C168.465 26.594 168.155 27.0028 168.153 27.4695L168.047 50.0257C162.955 51.9764 158.061 54.4469 153.479 57.3776L137.194 42.7511C136.826 42.4196 136.276 42.3938 135.877 42.6883C130.014 47.0274 124.595 52.0053 119.771 57.4871C114.92 62.9962 110.648 69.038 107.069 75.4452C106.841 75.8523 106.91 76.3609 107.238 76.6925L123.075 92.7224C120.858 97.7036 119.143 102.918 117.969 108.249L96.1325 109.451C95.638 109.478 95.2318 109.85 95.1579 110.339C92.9921 124.79 93.9393 139.861 97.897 153.923C98.0238 154.372 98.4316 154.682 98.8956 154.684L121.4 154.792C123.34 159.886 125.803 164.79 128.731 169.391L114.14 185.722C113.811 186.091 113.784 186.643 114.077 187.04C118.395 192.908 123.362 198.342 128.842 203.189C134.35 208.063 140.379 212.347 146.758 215.921C147.164 216.148 147.672 216.079 148.002 215.751L163.993 199.871C168.961 202.095 174.163 203.815 179.479 204.99L180.678 226.88C180.705 227.376 181.076 227.783 181.564 227.857C186.615 228.618 191.737 228.996 196.868 228.996C206.392 228.996 215.935 227.693 225.048 225.113C225.496 224.986 225.806 224.577 225.808 224.112L225.914 201.551C231.003 199.603 235.897 197.135 240.479 194.204L256.769 208.833C257.137 209.165 257.687 209.191 258.085 208.896C263.95 204.551 269.371 199.57 274.194 194.089C279.044 188.579 283.318 182.539 286.893 176.135C287.121 175.727 287.052 175.219 286.725 174.887L270.886 158.857C273.102 153.883 274.818 148.666 275.992 143.331L297.825 142.13C298.32 142.103 298.726 141.731 298.8 141.242C300.966 126.789 300.02 111.719 296.063 97.6586C295.936 97.2095 295.528 96.8989 295.064 96.8957L295.062 96.8989ZM296.857 140.091L275.082 141.289C274.61 141.314 274.215 141.654 274.118 142.118C272.924 147.812 271.097 153.374 268.69 158.65C268.51 159.046 268.592 159.512 268.897 159.821L284.686 175.801C281.263 181.821 277.209 187.505 272.628 192.709C268.089 197.865 263.011 202.571 257.525 206.707L241.277 192.116C240.926 191.801 240.407 191.761 240.01 192.02C235.163 195.189 229.949 197.823 224.509 199.848C224.101 199.999 223.831 200.389 223.828 200.823L223.722 223.314C210.473 226.951 196.33 227.847 182.712 225.916L181.516 204.082C181.49 203.609 181.15 203.213 180.689 203.117C175.017 201.923 169.47 200.091 164.202 197.675C163.807 197.495 163.342 197.577 163.033 197.883L147.092 213.715C141.095 210.292 135.423 206.228 130.221 201.626C125.066 197.065 120.373 191.975 116.261 186.486L130.815 170.199C131.13 169.847 131.17 169.325 130.911 168.929C127.744 164.061 125.115 158.833 123.099 153.39C122.948 152.981 122.559 152.711 122.126 152.708L99.6903 152.6C96.0634 139.312 95.1676 125.138 97.0942 111.496L118.875 110.296C119.347 110.27 119.742 109.931 119.838 109.467C121.031 103.779 122.857 98.2154 125.265 92.9333C125.445 92.5373 125.363 92.0706 125.058 91.7616L109.271 75.7815C112.697 69.7574 116.751 64.0729 121.33 58.8712C125.87 53.713 130.947 49.0102 136.431 44.8804L152.674 59.4683C153.026 59.7837 153.546 59.824 153.941 59.5649C158.788 56.3959 164.006 53.7596 169.447 51.7317C169.855 51.5805 170.125 51.191 170.126 50.7564L170.232 28.271C183.486 24.6353 197.626 23.7405 211.242 25.6718L212.435 47.4989C212.461 47.9721 212.801 48.368 213.264 48.4662C218.931 49.6572 224.48 51.4887 229.759 53.9077C230.154 54.0896 230.62 54.0059 230.928 53.7001L246.869 37.8729C252.867 41.301 258.538 45.3648 263.734 49.9614C268.879 54.5128 273.574 59.6035 277.695 65.1013L263.144 81.384C262.83 81.7364 262.79 82.2563 263.048 82.6538C266.217 87.5256 268.844 92.7562 270.859 98.1993C271.01 98.6081 271.398 98.8801 271.832 98.8817L294.264 98.9896C297.89 112.275 298.784 126.451 296.859 140.095L296.857 140.091Z" fill="#A2DFFF"/>
<path d="M218.29 101.585C211.843 95.8813 203.56 93.0358 194.973 93.5718C186.385 94.1093 178.523 97.9639 172.833 104.427C161.082 117.776 162.355 138.219 175.672 149.999C181.606 155.247 189.087 158.075 196.935 158.075C197.616 158.075 198.302 158.054 198.987 158.01C207.575 157.473 215.439 153.617 221.131 147.151C232.88 133.804 231.605 113.363 218.29 101.585ZM219.565 145.767C214.243 151.814 206.888 155.421 198.857 155.923C190.828 156.427 183.083 153.765 177.052 148.429C164.6 137.413 163.409 118.294 174.398 105.812C179.719 99.7665 187.073 96.1614 195.105 95.6592C195.747 95.619 196.386 95.5997 197.024 95.5997C204.362 95.5997 211.363 98.2456 216.911 103.153C229.364 114.168 230.555 133.285 219.567 145.767H219.565Z" fill="#A2DFFF"/>
<path fill-rule="evenodd" clip-rule="evenodd" d="M86.1275 163.381C85.7101 162.074 85.1754 160.816 84.5429 159.62L90.6744 151.799C88.4459 148.627 85.6619 145.877 82.4653 143.686L74.823 149.971C73.6236 149.352 72.3649 148.83 71.0532 148.426L69.8715 138.552C67.9963 138.224 66.0648 138.058 64.0948 138.071C62.1297 138.087 60.2095 138.277 58.3438 138.628L57.3741 148.49C56.0688 148.907 54.8165 149.443 53.6252 150.079L45.8239 143.937C42.6578 146.168 39.9124 148.959 37.7256 152.157L43.9984 159.821C43.3787 161.022 42.8569 162.283 42.4571 163.595L32.6056 164.783C32.2797 166.663 32.1143 168.599 32.1255 170.574C32.1432 172.543 32.3343 174.467 32.6843 176.339L42.5229 177.309C42.9356 178.621 43.4718 179.874 44.1044 181.069L37.9745 188.891C40.203 192.063 42.9837 194.816 46.1803 197.002L53.8243 190.719C55.0236 191.34 56.2823 191.86 57.5908 192.265L58.7725 202.143C60.651 202.468 62.5792 202.635 64.5524 202.621C66.5176 202.605 68.4346 202.416 70.3002 202.064L71.2732 192.198C72.5784 191.784 73.8292 191.25 75.0188 190.614L82.8233 196.761C85.9894 194.527 88.7333 191.738 90.92 188.532L84.6456 180.871C85.2702 179.667 85.7887 178.41 86.1917 177.095L96.04 175.909C96.3692 174.029 96.5313 172.09 96.5185 170.116C96.504 168.148 96.3146 166.223 95.9614 164.353L86.1259 163.383L86.1275 163.381ZM64.4191 183.455C57.1975 183.507 51.302 177.676 51.249 170.44C51.1976 163.201 57.0112 157.291 64.2329 157.239C71.4562 157.186 77.3533 163.014 77.4031 170.255C77.4544 177.492 71.6376 183.409 64.4191 183.457V183.455Z" fill="#25C0DC"/>
<path d="M64.3311 156.227C64.2958 156.227 64.2604 156.227 64.2251 156.227C60.4634 156.254 56.9376 157.747 54.2965 160.432C51.6554 163.117 50.2153 166.672 50.2426 170.443C50.2988 178.194 56.6069 184.459 64.3231 184.459C64.3568 184.459 64.3905 184.459 64.4242 184.459C68.1844 184.434 71.7101 182.94 74.3512 180.254C76.9923 177.568 78.4325 174.012 78.4052 170.243C78.3795 166.472 76.8895 162.938 74.2115 160.29C71.5576 157.669 68.0527 156.228 64.3295 156.228L64.3311 156.227ZM72.9207 178.839C70.6553 181.142 67.6337 182.422 64.4114 182.444C64.3825 182.444 64.3536 182.444 64.3247 182.444C57.7099 182.444 52.3025 177.072 52.2527 170.428C52.2302 167.196 53.4633 164.148 55.7287 161.847C57.9925 159.545 61.0157 158.264 64.2396 158.242C67.4683 158.213 70.506 159.455 72.8019 161.724C75.0978 163.994 76.3742 167.024 76.3966 170.256C76.4191 173.488 75.1861 176.536 72.9207 178.838V178.839Z" fill="#1977CC"/>
<path d="M96.0628 163.348L86.8743 162.44C86.5516 161.523 86.1695 160.617 85.7328 159.733L91.4661 152.42C91.7407 152.071 91.7535 151.582 91.4982 151.218C89.1927 147.936 86.3461 145.121 83.0355 142.854C82.6662 142.601 82.1765 142.622 81.8314 142.907L74.6932 148.778C73.8053 148.35 72.8982 147.976 71.9798 147.666L70.8752 138.433C70.8222 137.992 70.4867 137.637 70.05 137.56C68.0993 137.219 66.0907 137.053 64.0919 137.063C62.0882 137.079 60.0941 137.274 58.1642 137.637C57.7259 137.721 57.3936 138.083 57.3502 138.529L56.4431 147.742C55.5296 148.063 54.6273 148.446 53.7442 148.886L46.4503 143.143C46.1019 142.868 45.6138 142.855 45.2526 143.111C41.9821 145.414 39.1724 148.266 36.9038 151.586C36.6518 151.957 36.6726 152.449 36.9552 152.795L42.8138 159.954C42.3851 160.846 42.0126 161.755 41.7044 162.672L32.4918 163.783C32.0519 163.836 31.6971 164.172 31.6216 164.61C31.2813 166.573 31.1143 168.58 31.1255 170.583C31.1448 172.582 31.3375 174.579 31.7003 176.525C31.7822 176.966 32.145 177.297 32.5898 177.342L41.7798 178.248C42.0961 179.158 42.4782 180.064 42.9214 180.955L37.1896 188.269C36.9151 188.618 36.9022 189.107 37.1575 189.471C39.4711 192.765 42.3177 195.579 45.6186 197.835C45.9879 198.088 46.4776 198.065 46.8228 197.782L53.9626 191.912C54.8456 192.341 55.7543 192.712 56.6743 193.026L57.7789 202.263C57.8319 202.705 58.1675 203.059 58.6058 203.135C60.4971 203.463 62.4221 203.627 64.3311 203.627C64.4081 203.627 64.4868 203.627 64.5639 203.627C66.5612 203.611 68.5552 203.418 70.4899 203.053C70.9282 202.971 71.2605 202.607 71.3039 202.161L72.2126 192.946C73.123 192.627 74.0253 192.244 74.9099 191.803L82.2071 197.55C82.5555 197.826 83.0435 197.838 83.4064 197.582C86.68 195.273 89.4897 192.418 91.7551 189.098C92.0072 188.727 91.9863 188.235 91.7021 187.889L85.842 180.735C86.2706 179.85 86.6431 178.939 86.9546 178.015L96.1639 176.906C96.6038 176.853 96.957 176.518 97.0341 176.08C97.3745 174.135 97.5415 172.126 97.527 170.108C97.5126 168.107 97.3199 166.107 96.9522 164.164C96.8687 163.725 96.5075 163.393 96.0628 163.35V163.348ZM95.1733 174.996L86.0764 176.09C85.6814 176.138 85.3523 176.414 85.2351 176.795C84.8578 178.028 84.3601 179.241 83.758 180.403C83.5717 180.761 83.6183 181.195 83.8736 181.507L89.6647 188.576C87.759 191.233 85.4727 193.556 82.8541 195.497L75.6452 189.819C75.3322 189.572 74.9035 189.534 74.5519 189.722C73.3895 190.343 72.1869 190.852 70.9764 191.235C70.5926 191.356 70.3181 191.695 70.2796 192.096L69.3821 201.2C67.7974 201.46 66.1758 201.596 64.5526 201.609C62.9327 201.622 61.3014 201.505 59.6879 201.265L58.5961 192.143C58.5496 191.747 58.2734 191.417 57.8945 191.299C56.6647 190.919 55.4541 190.422 54.2933 189.822C53.9369 189.637 53.505 189.682 53.1951 189.938L46.1404 195.738C43.4993 193.839 41.1842 191.549 39.2415 188.916L44.9042 181.691C45.1498 181.377 45.1884 180.947 45.0005 180.595C44.3776 179.418 43.8686 178.211 43.4897 177.006C43.3693 176.621 43.0305 176.346 42.6291 176.306L33.5499 175.409C33.2914 173.816 33.1533 172.19 33.1389 170.567C33.1292 168.938 33.2464 167.301 33.4857 165.692L42.5858 164.594C42.9808 164.546 43.3099 164.269 43.4271 163.887C43.7996 162.667 44.2941 161.454 44.8994 160.281C45.084 159.923 45.039 159.49 44.7838 159.178L38.9958 152.106C40.9048 149.451 43.1911 147.13 45.8065 145.194L53.0137 150.867C53.3268 151.113 53.7555 151.152 54.1071 150.964C55.2663 150.346 56.472 149.834 57.6874 149.446C58.0695 149.324 58.3425 148.986 58.3826 148.585L59.2785 139.483C60.8599 139.224 62.4831 139.088 64.1095 139.073C65.7407 139.063 67.3736 139.179 68.9711 139.421L70.0628 148.541C70.1094 148.937 70.3855 149.267 70.766 149.385C71.9911 149.761 73.2032 150.259 74.3705 150.862C74.7269 151.047 75.1588 151.001 75.4686 150.746L82.5201 144.946C85.1676 146.855 87.486 149.145 89.4223 151.77L83.7596 158.993C83.514 159.307 83.4754 159.735 83.6617 160.087C84.2766 161.249 84.7855 162.46 85.1773 163.685C85.2993 164.068 85.6365 164.341 86.0362 164.38L95.1123 165.276C95.3724 166.868 95.5105 168.494 95.5217 170.119C95.5329 171.762 95.4173 173.399 95.1781 174.994L95.1733 174.996Z" fill="#25C0DC"/>
<path d="M108.039 81.7009L93.8184 75.6381C93.7814 73.6601 93.5936 71.6725 93.2564 69.7122L106.048 60.9182C106.428 60.6575 106.592 60.1763 106.452 59.7369C104.441 53.4263 101.348 47.5937 97.2638 42.3985C96.9764 42.0331 96.4836 41.9028 96.0533 42.0766L81.7287 47.8673C80.2854 46.4719 78.7505 45.1973 77.1546 44.0674L79.9948 28.781C80.0799 28.3272 79.8567 27.8717 79.4473 27.6609C76.5365 26.1528 73.4667 24.9007 70.3279 23.9415C67.2148 22.9855 63.9844 22.3031 60.7268 21.9136C60.266 21.8589 59.8245 22.1148 59.6431 22.5429L53.5934 36.8025C51.617 36.8395 49.6358 37.0278 47.6867 37.3641L38.9141 24.5418C38.654 24.1603 38.1739 23.9962 37.7356 24.1378C31.4371 26.156 25.6187 29.2558 20.4425 33.3502C20.078 33.6383 19.948 34.1324 20.1214 34.5621L25.8965 48.9231C24.5125 50.3619 23.2409 51.9006 22.1058 53.5068L6.85971 50.6533C6.40534 50.568 5.95098 50.7917 5.74065 51.2021C4.23788 54.1232 2.99038 57.2004 2.03028 60.3485C1.06856 63.503 0.38782 66.7412 0.00730966 69.9745C-0.0472783 70.4364 0.208001 70.8774 0.635072 71.0593L14.8585 77.122C14.8954 79.1048 15.0832 81.0925 15.4172 83.0463L2.62432 91.8403C2.24381 92.101 2.08005 92.5822 2.22133 93.0216C4.23467 99.329 7.32692 105.162 11.4114 110.357C11.6988 110.722 12.1917 110.853 12.622 110.679L26.9481 104.888C28.3722 106.269 29.9071 107.544 31.5222 108.689L28.6772 123.979C28.5921 124.433 28.8153 124.89 29.2263 125.101C32.1436 126.604 35.2134 127.853 38.3489 128.812C41.4733 129.773 44.702 130.457 47.9484 130.845C47.9901 130.85 48.0319 130.853 48.072 130.853C48.4863 130.853 48.8668 130.605 49.0321 130.216L55.0818 115.956C57.0501 115.919 59.033 115.731 60.9933 115.394L69.7659 128.218C70.026 128.6 70.5045 128.764 70.9444 128.624C77.2349 126.609 83.0533 123.509 88.2392 119.41C88.6036 119.122 88.7337 118.628 88.5603 118.196L82.7836 103.837C84.1627 102.403 85.4327 100.866 86.5726 99.255L101.824 102.1C102.276 102.184 102.731 101.962 102.943 101.552C104.437 98.6482 105.685 95.5726 106.653 92.4052C107.613 89.2491 108.292 86.0125 108.673 82.7856C108.727 82.3237 108.472 81.8827 108.045 81.7009H108.039ZM104.651 91.7936C103.797 94.5892 102.715 97.3124 101.43 99.9003L86.2852 97.0742C85.8774 96.9985 85.4648 97.1707 85.232 97.5135C83.9396 99.4127 82.4528 101.209 80.8152 102.855C80.5198 103.151 80.4299 103.597 80.5856 103.985L86.3238 118.246C81.6982 121.795 76.5621 124.531 71.0391 126.388L62.3275 113.655C62.0931 113.312 61.6789 113.141 61.2727 113.218C58.9912 113.65 56.6728 113.87 54.3818 113.872C53.9643 113.872 53.5854 114.123 53.4216 114.509L47.4138 128.671C44.5543 128.286 41.7125 127.661 38.9542 126.813C36.1831 125.965 33.4665 124.884 30.8672 123.593L33.6913 108.411C33.7668 108.002 33.595 107.589 33.253 107.355C31.3488 106.055 29.5555 104.564 27.9259 102.926C27.6288 102.628 27.1841 102.538 26.7972 102.694L12.5674 108.446C9.03038 103.811 6.30259 98.6643 4.4466 93.1262L17.1511 84.3918C17.4931 84.1568 17.6633 83.7416 17.5862 83.3344C17.156 81.0651 16.936 78.7427 16.9344 76.43C16.9344 76.0115 16.6839 75.6317 16.2986 75.4675L2.17317 69.4466C2.55207 66.5963 3.17341 63.7476 4.02274 60.9649C4.87046 58.1838 5.95258 55.4606 7.24343 52.8582L22.3852 55.6924C22.7914 55.768 23.2056 55.5958 23.4384 55.253C24.7244 53.3603 26.2111 51.5626 27.8568 49.9097C28.1522 49.6136 28.2421 49.1677 28.0864 48.7799L22.3499 34.5171C26.969 30.9731 32.105 28.2387 37.6345 26.3765L46.3477 39.1104C46.5821 39.4532 46.9963 39.6238 47.4025 39.5465C49.6679 39.1152 51.9847 38.8947 54.2886 38.8931C54.7061 38.8931 55.0834 38.642 55.2471 38.2558L61.255 24.0944C64.1257 24.4806 66.9691 25.1035 69.7178 25.9484C72.4905 26.7966 75.2055 27.8814 77.7984 29.1753L74.9775 44.3587C74.902 44.7675 75.0738 45.1828 75.4174 45.4161C77.2943 46.6924 79.0876 48.1812 80.7461 49.8421C81.0416 50.1382 81.4863 50.2284 81.8732 50.0722L96.1014 44.3201C99.6384 48.9553 102.366 54.1039 104.221 59.6436L91.5177 68.3763C91.1757 68.6113 91.0055 69.0266 91.0826 69.4337C91.5144 71.7127 91.7344 74.0367 91.736 76.3398C91.736 76.7599 91.9865 77.1381 92.3718 77.3023L106.496 83.3232C106.117 86.1686 105.497 89.0173 104.651 91.8001V91.7936Z" fill="#6EBDFF"/>
<path d="M61.0167 54.4883C55.1838 52.7002 49.0041 53.2957 43.6176 56.1685C38.2294 59.0397 34.2814 63.8423 32.5009 69.6894C28.8178 81.7569 35.6188 94.5825 47.6619 98.2778C49.8775 98.9569 52.1172 99.2788 54.3216 99.2788C64.1025 99.2788 73.1753 92.9248 76.1793 83.0734C79.8576 71.0027 73.0549 58.1787 61.0151 54.4899L61.0167 54.4883ZM74.1852 82.4602C71.4558 91.4103 63.2114 97.185 54.3248 97.1833C52.3227 97.1833 50.2853 96.8904 48.2736 96.274C37.3303 92.9167 31.1506 81.2644 34.4981 70.2977C36.1165 64.985 39.7033 60.6218 44.5985 58.0129C47.6426 56.3906 50.9629 55.5682 54.3152 55.5682C56.3542 55.5682 58.4029 55.8724 60.4082 56.4872C71.3483 59.8396 77.5295 71.4903 74.1868 82.4586L74.1852 82.4602Z" fill="#6EBDFF"/>
<path d="M313.156 25.2159C309.287 27.4788 306.527 31.1161 305.387 35.46C304.247 39.8038 304.862 44.3328 307.121 48.2099C310.234 53.5613 315.862 56.5484 321.637 56.5484C324.504 56.5484 327.409 55.8113 330.06 54.263C338.047 49.5892 340.754 39.2727 336.095 31.2658C331.434 23.2588 321.144 20.5453 313.155 25.2175L313.156 25.2159ZM329.009 52.454C322.013 56.5419 313.002 54.1648 308.924 47.1541C306.946 43.7598 306.408 39.7942 307.407 35.9911C308.406 32.188 310.822 29.0029 314.21 27.0217C316.531 25.6649 319.073 25.0196 321.586 25.0196C326.641 25.0196 331.569 27.6349 334.295 32.3183C338.375 39.329 336.005 48.3628 329.011 52.454H329.009Z" fill="white"/>
<path d="M360.584 41.7711L350.337 37.8731C350.252 36.5501 350.077 35.2336 349.814 33.9445L358.641 27.3474C359.01 27.0722 359.155 26.5861 358.997 26.1516C358.188 23.9193 357.165 21.7337 355.956 19.6527C354.749 17.5829 353.36 15.621 351.829 13.8265C351.527 13.4741 351.029 13.3614 350.607 13.5529L340.608 18.0626C339.62 17.1935 338.565 16.3871 337.462 15.6581L339.052 4.73965C339.119 4.28257 338.878 3.83515 338.461 3.64041C334.107 1.60447 329.475 0.379695 324.694 0.00308702C324.231 -0.0323205 323.801 0.239674 323.636 0.674221L319.747 10.9456C318.414 11.0309 317.101 11.2064 315.825 11.4719L309.244 2.62325C308.969 2.25308 308.484 2.10823 308.051 2.26434C305.811 3.07872 303.631 4.10232 301.569 5.30939C299.524 6.50359 297.567 7.89575 295.752 9.44725C295.399 9.74982 295.287 10.2487 295.478 10.672L299.978 20.7004C299.109 21.6918 298.307 22.7476 297.581 23.8517L286.687 22.2584C286.232 22.1924 285.785 22.4322 285.591 22.8506C283.558 27.217 282.338 31.8602 281.964 36.6515C281.929 37.115 282.2 37.5464 282.634 37.7105L292.88 41.6102C292.965 42.938 293.14 44.2561 293.403 45.542L284.575 52.1343C284.205 52.4095 284.059 52.8972 284.217 53.3301C285.031 55.5753 286.055 57.7625 287.257 59.829C288.463 61.9003 289.852 63.8638 291.385 65.6616C291.687 66.0141 292.183 66.1267 292.607 65.9352L302.608 61.4255C303.599 62.2979 304.652 63.1026 305.752 63.83L304.162 74.7517C304.095 75.2087 304.335 75.6562 304.753 75.8509C309.105 77.8852 313.737 79.1084 318.52 79.485C318.548 79.4866 318.575 79.4882 318.602 79.4882C319.032 79.4882 319.423 79.2227 319.577 78.8139L323.465 68.5409C324.783 68.4572 326.097 68.2817 327.389 68.0162L333.969 76.8681C334.245 77.2383 334.73 77.3847 335.163 77.2254C337.403 76.4062 339.583 75.3793 341.64 74.1739C343.693 72.9765 345.651 71.5859 347.458 70.0392C347.812 69.7367 347.924 69.2377 347.733 68.8145L343.234 58.7877C344.1 57.7995 344.904 56.7437 345.633 55.6348L356.526 57.2281C356.982 57.2941 357.429 57.0543 357.623 56.6359C359.654 52.2743 360.874 47.6311 361.248 42.8334C361.285 42.3698 361.012 41.9385 360.579 41.7727L360.584 41.7711ZM356.058 55.0425L345.275 53.4653C344.867 53.4057 344.459 53.594 344.239 53.9449C343.359 55.3532 342.351 56.6777 341.242 57.8832C340.958 58.1906 340.885 58.6396 341.057 59.0211L345.511 68.9464C343.966 70.2115 342.317 71.359 340.595 72.3633C338.866 73.3756 337.047 74.2544 335.178 74.9818L328.666 66.2217C328.418 65.8885 327.999 65.734 327.595 65.8274C325.992 66.1975 324.344 66.418 322.698 66.4808C322.279 66.4969 321.911 66.7624 321.762 67.1551L317.912 77.3252C313.911 76.9276 310.027 75.9008 306.346 74.2704L307.919 63.4599C307.978 63.0495 307.791 62.6407 307.439 62.4218C306.044 61.5479 304.722 60.5387 303.513 59.4186C303.205 59.1337 302.759 59.0613 302.377 59.2335L292.475 63.6981C291.22 62.1611 290.074 60.5066 289.064 58.77C288.054 57.0334 287.177 55.2099 286.455 53.3365L295.194 46.8119C295.526 46.564 295.68 46.1424 295.587 45.7384C295.221 44.1467 295.001 42.4938 294.933 40.828C294.916 40.4096 294.653 40.041 294.261 39.8929L284.117 36.0335C284.512 32.026 285.536 28.1328 287.166 24.4391L297.949 26.0148C298.358 26.0743 298.764 25.886 298.984 25.5336C299.856 24.1333 300.864 22.8104 301.979 21.5985C302.263 21.2911 302.335 20.842 302.163 20.4606L297.709 10.5352C299.259 9.26538 300.909 8.11625 302.626 7.11518C304.356 6.10284 306.174 5.22409 308.043 4.50146L314.558 13.2616C314.805 13.5948 315.226 13.7493 315.632 13.6559C317.209 13.2874 318.856 13.0669 320.529 12.9993C320.946 12.9832 321.314 12.7176 321.463 12.3249L325.312 2.15651C329.313 2.55404 333.196 3.58086 336.88 5.21444L335.306 16.0234C335.247 16.4338 335.435 16.841 335.786 17.0615C337.188 17.9386 338.509 18.9494 339.715 20.0647C340.022 20.3496 340.47 20.422 340.85 20.2498L350.75 15.7868C352.004 17.3222 353.15 18.9751 354.16 20.7085C355.175 22.4547 356.051 24.2798 356.77 26.1419L348.035 32.6714C347.702 32.9192 347.548 33.3393 347.641 33.7449C348.007 35.3447 348.227 36.9976 348.295 38.6553C348.313 39.0737 348.576 39.4423 348.968 39.5904L359.111 43.4482C358.715 47.4621 357.692 51.3553 356.064 55.0441L356.058 55.0425Z" fill="white"/>
<path d="M54.3388 42.7188C35.8271 42.7188 20.7656 57.8169 20.7656 76.3736C20.7656 94.9304 35.8271 110.029 54.3388 110.029C72.8506 110.029 87.9121 94.9304 87.9121 76.3736C87.9121 57.8169 72.8506 42.7188 54.3388 42.7188ZM54.3388 107.936C36.9767 107.936 22.8528 93.7765 22.8528 76.3736C22.8528 58.9708 36.9783 44.811 54.3388 44.811C71.6994 44.811 85.8249 58.9708 85.8249 76.3736C85.8249 93.7765 71.701 107.936 54.3388 107.936Z" fill="#6EBDFF"/>
<path d="M196.979 76.4922C183.841 76.4922 171.491 81.6198 162.202 90.932C152.912 100.244 147.797 112.626 147.797 125.794C147.797 138.962 152.912 151.344 162.202 160.656C171.491 169.968 183.843 175.096 196.979 175.096C210.115 175.096 222.467 169.968 231.756 160.656C241.046 151.344 246.161 138.962 246.161 125.794C246.161 112.626 241.046 100.244 231.756 90.932C222.467 81.6198 210.115 76.4922 196.979 76.4922ZM230.281 159.178C221.386 168.095 209.558 173.007 196.979 173.007C184.4 173.007 172.572 168.096 163.677 159.178C154.783 150.262 149.882 138.406 149.882 125.796C149.882 113.186 154.781 101.329 163.677 92.4127C172.572 83.4964 184.4 78.5845 196.979 78.5845C209.558 78.5845 221.386 83.4948 230.281 92.4127C239.176 101.329 244.076 113.186 244.076 125.796C244.076 138.406 239.177 150.262 230.281 159.178Z" fill="#A2DFFF"/>
<path d="M196.98 71.9453C182.632 71.9453 169.144 77.5461 158.998 87.7162C148.853 97.8862 143.266 111.409 143.266 125.791C143.266 140.172 148.853 153.695 158.998 163.865C169.144 174.035 182.633 179.636 196.98 179.636C211.327 179.636 224.817 174.035 234.962 163.865C245.108 153.695 250.695 140.172 250.695 125.791C250.695 111.409 245.108 97.8862 234.962 87.7162C224.817 77.5461 211.327 71.9453 196.98 71.9453ZM233.487 162.387C223.735 172.163 210.77 177.545 196.98 177.545C183.19 177.545 170.224 172.162 160.474 162.387C150.722 152.612 145.353 139.616 145.353 125.792C145.353 111.969 150.723 98.9709 160.474 89.1968C170.226 79.4211 183.19 74.0392 196.98 74.0392C210.77 74.0392 223.736 79.4227 233.487 89.1968C243.239 98.9725 248.608 111.969 248.608 125.792C248.608 139.616 243.237 152.613 233.487 162.387Z" fill="#A2DFFF"/>
</svg>
