<svg width="53" height="53" viewBox="0 0 53 53" fill="none" xmlns="http://www.w3.org/2000/svg">
<path d="M47.4299 38.6976L47.4279 38.6998C47.0846 39.0793 46.6099 39.2948 46.1089 39.2948C45.6098 39.2948 45.1332 39.0807 44.7891 38.6989L47.4299 38.6976ZM47.4299 38.6976C50.3843 35.4121 52 31.0747 52 26.497C52 17.0406 45.054 9.16406 36.2998 9.16406H16.6995C15.5991 9.16406 14.8828 10.1191 14.8828 11.0714C14.8828 12.0238 15.5991 12.9788 16.6995 12.9788H36.2998C42.8558 12.9788 48.3666 18.9427 48.3666 26.497C48.3666 30.1199 47.0882 33.5188 44.7882 36.0769M47.4299 38.6976L44.7882 36.0769M44.7882 36.0769C44.1273 36.8112 44.1259 37.9629 44.7882 38.6979L44.7882 36.0769Z" fill="#7F878B" stroke="#7F878B" stroke-width="2"/>
<path d="M7.55265 17.7162L7.55289 17.7158C8.14867 16.9396 8.08211 15.79 7.35795 15.1028C6.57162 14.3538 5.36656 14.4816 4.7243 15.3193C2.31609 18.4553 1 22.4253 1 26.5012C1 35.9576 7.94593 43.8341 16.7002 43.8341H36.3005C37.4009 43.8341 38.1172 42.8791 38.1172 41.9267C38.1172 40.9743 37.4009 40.0193 36.3005 40.0193H16.7002C10.1442 40.0193 4.63336 34.0555 4.63336 26.5012C4.63336 23.2799 5.6758 20.1596 7.55265 17.7162Z" fill="#7F878B" stroke="#7F878B" stroke-width="2"/>
<path d="M25.3705 4.21811L24.6272 3.54913L25.3705 4.21811C26.0321 3.48302 26.0321 2.33221 25.3705 1.59711C24.6539 0.800963 23.4457 0.800962 22.7291 1.59711L15.379 9.76358C14.7174 10.4987 14.7174 11.6495 15.379 12.3846L16.1076 11.7288L15.379 12.3846C15.7232 12.767 16.2002 12.9815 16.6997 12.9815C17.1992 12.9815 17.6762 12.767 18.0204 12.3846L25.3705 4.21811Z" fill="#7F878B" stroke="#7F878B" stroke-width="2"/>
<path d="M22.7291 20.5486C23.0733 20.9311 23.5503 21.1455 24.0498 21.1455C24.5493 21.1455 25.0263 20.9311 25.3705 20.5486C26.0321 19.8136 26.0321 18.6627 25.3705 17.9276L18.0204 9.76117C17.3038 8.96503 16.0956 8.96503 15.379 9.76117C14.7174 10.4963 14.7174 11.6471 15.379 12.3822L22.7291 20.5486Z" fill="#7F878B" stroke="#7F878B" stroke-width="2"/>
<path d="M39.2533 43.2337L38.5262 42.5794L39.2533 43.2337C39.9149 42.4986 39.9149 41.3478 39.2533 40.6127C38.5367 39.8166 37.3285 39.8166 36.6119 40.6127L29.2618 48.7792C28.6002 49.5143 28.6002 50.6651 29.2618 51.4002L29.9904 50.7445L29.2618 51.4002C29.606 51.7826 30.083 51.9971 30.5825 51.9971C31.082 51.9971 31.559 51.7826 31.9032 51.4002L39.2533 43.2337Z" fill="#7F878B" stroke="#7F878B" stroke-width="2"/>
<path d="M36.6119 43.2361C36.9561 43.6186 37.4331 43.833 37.9326 43.833C38.4321 43.833 38.9091 43.6186 39.2533 43.2361C39.9149 42.5011 39.9149 41.3502 39.2533 40.6151L31.9032 32.4487C31.1866 31.6525 29.9784 31.6525 29.2618 32.4487C28.6002 33.1838 28.6002 34.3346 29.2618 35.0697L36.6119 43.2361Z" fill="#7F878B" stroke="#7F878B" stroke-width="2"/>
</svg>
