<svg width="74" height="101" viewBox="0 0 74 101" fill="none" xmlns="http://www.w3.org/2000/svg">
<path d="M37 13.7727V0L18.5 18.3636L37 36.7273V22.9545C52.3088 22.9545 64.75 35.3041 64.75 50.5C64.75 55.1368 63.5937 59.5441 61.5125 63.3545L68.265 70.0573C71.8725 64.4105 74 57.7077 74 50.5C74 30.2082 57.4425 13.7727 37 13.7727ZM37 78.0455C21.6912 78.0455 9.25 65.6959 9.25 50.5C9.25 45.8632 10.4062 41.4559 12.4875 37.6455L5.735 30.9427C2.1275 36.5895 0 43.2923 0 50.5C0 70.7918 16.5575 87.2273 37 87.2273V101L55.5 82.6364L37 64.2727V78.0455Z" fill="#2C4660"/>
</svg>
