<svg width="100" height="77" viewBox="0 0 100 77" fill="none" xmlns="http://www.w3.org/2000/svg">
<g clip-path="url(#clip0_907_8985)">
<path d="M50 32C42.832 32 37 37.832 37 45C37 52.168 42.832 58 50 58C57.168 58 63 52.168 63 45C63 37.832 57.168 32 50 32Z" fill="#D7D7D7"/>
<path d="M87 13H72C72 5.82 66.18 0 59 0H41C33.82 0 28 5.82 28 13H13C5.82 13 0 18.82 0 26V64C0 71.18 5.82 77 13 77H87C94.18 77 100 71.18 100 64V26C100 18.82 94.18 13 87 13ZM50 68C37.317 68 27 57.682 27 45C27 32.318 37.317 22 50 22C62.683 22 73 32.318 73 45C73 57.682 62.683 68 50 68Z" fill="#D7D7D7"/>
</g>
<defs>
<clipPath id="clip0_907_8985">
<rect width="100" height="77" fill="white"/>
</clipPath>
</defs>
</svg>
