<svg width="51" height="48" viewBox="0 0 51 48" fill="none" xmlns="http://www.w3.org/2000/svg">
<path fill-rule="evenodd" clip-rule="evenodd" d="M39.2773 8.46789C39.2773 3.86025 35.5421 0.125 30.9344 0.125H19.8105C15.2029 0.125 11.4676 3.86025 11.4676 8.46789H8.68664C4.079 8.46789 0.34375 12.2031 0.34375 16.8108V39.0585C0.34375 43.6663 4.079 47.4014 8.68664 47.4014H42.0582C46.666 47.4014 50.4011 43.6663 50.4011 39.0585V16.8108C50.4011 12.2031 46.666 8.46789 42.0582 8.46789H39.2773ZM30.9344 5.68693H19.8105C18.2746 5.68693 17.0295 6.93202 17.0295 8.46789H33.7153C33.7153 6.93202 32.4703 5.68693 30.9344 5.68693ZM8.68664 14.0298H42.0582C43.5941 14.0298 44.8392 15.2749 44.8392 16.8108V39.0585C44.8392 40.5944 43.5941 41.8395 42.0582 41.8395H8.68664C7.15077 41.8395 5.90568 40.5944 5.90568 39.0585V16.8108C5.90568 15.2749 7.15077 14.0298 8.68664 14.0298Z" fill="#7F878B"/>
</svg>
